<svg xmlns="http://www.w3.org/2000/svg" width="833" height="251" fill="none"><path fill="#141414" d="m160.485 2.313 17.057 5.283c.778.244 1.498.65 2.113 1.196l18.369 16.348a5.722 5.722 0 0 0 6.734.639l38.525-22.955a5.776 5.776 0 0 1 2.926-.802h27.797c.557 0 1.103.082 1.637.233l24.139 7.187c.453.14.894.325 1.3.569l13.574 8.104a5.732 5.732 0 0 0 4.899.465l26.021-9.545a5.875 5.875 0 0 1 1.683-.348l27.646-1.405a5.81 5.81 0 0 1 2.659.5l29.701 13.468a5.68 5.68 0 0 0 4.505.093l30.664-12.412a5.817 5.817 0 0 1 1.777-.406l32.905-2.172a5.874 5.874 0 0 1 1.742.151l15.523 3.82a5.661 5.661 0 0 1 2.764 1.603l3.762 3.924c1.683 1.765 4.307 2.253 6.525 1.242l21.167-9.73a5.821 5.821 0 0 1 2.02-.51l32.337-2.114a5.676 5.676 0 0 1 3.019.639l19.378 10.09c1.486.778 3.24.86 4.795.232l29.957-12.122a5.862 5.862 0 0 1 1.614-.394L655.181.025a5.805 5.805 0 0 1 2.485.314l26.798 9.73a5.66 5.66 0 0 1 2.868 2.299 5.725 5.725 0 0 0 6.073 2.508l42.856-9.568a5.943 5.943 0 0 1 1.973-.093l40.778 5.26c.523.07 1.033.21 1.521.418l33.695 14.456c.743.313 1.405.79 1.951 1.382l14.223 15.407a5.748 5.748 0 0 1 1.51 3.646l.638 15.118a5.873 5.873 0 0 1-.209 1.8l-4.11 14.49a5.713 5.713 0 0 1-2.067 3.019L803.43 97.29a5.513 5.513 0 0 1-1.184.684l-22.851 9.777a5.263 5.263 0 0 1-.72.255l-15.187 4.215a5.707 5.707 0 0 0-4.191 5.515v31.036c0 .441-.047.871-.151 1.301l-9.428 40.429c-.07.29-.163.58-.279.871l-11.994 29.317a5.752 5.752 0 0 1-1.451 2.067l-18.288 16.604c-.383.348-.824.65-1.288.882l-12.947 6.479a5.748 5.748 0 0 1-3.378.546l-22.7-3.286a5.73 5.73 0 0 1-3.274-1.66l-19.669-20.076a5.65 5.65 0 0 1-1.463-2.635l-1.509-6.131c-1.057-4.284-6.363-5.817-9.533-2.74l-12.389 11.994a5.888 5.888 0 0 1-2.009 1.265l-41.602 15.222a5.86 5.86 0 0 1-1.242.302l-30.456 3.878a5.608 5.608 0 0 1-2.438-.22l-19.704-6.177a5.651 5.651 0 0 0-2.984-.116l-36.017 8.185c-.638.151-1.3.186-1.962.105l-40.127-4.888a5.664 5.664 0 0 1-2.625-1.022l-15.814-11.263a5.726 5.726 0 0 0-7.616.883l-11.936 13.538a5.794 5.794 0 0 1-3.31 1.858l-29.364 5.132a5.734 5.734 0 0 1-3.541-.523l-20.83-10.403a5.738 5.738 0 0 0-3.994-.418L304.38 250.45a5.816 5.816 0 0 1-2.717.047l-40.534-9.231a5.746 5.746 0 0 1-2.81-1.568l-14.955-15.187a5.719 5.719 0 0 0-8.081-.069l-13.387 13.109a5.707 5.707 0 0 1-2.531 1.439l-30.421 8.105a5.75 5.75 0 0 1-3.739-.279l-31.744-13.689a5.706 5.706 0 0 0-6.073.987l-10.194 9.079a5.738 5.738 0 0 1-3.17 1.417l-22.13 2.496a5.773 5.773 0 0 1-3.321-.627l-26.984-14.27a5.71 5.71 0 0 0-5.434.047L53.55 244.68a5.725 5.725 0 0 1-4.215.522l-34.752-9.114a5.733 5.733 0 0 1-4.052-3.971L.22 195.972a5.62 5.62 0 0 1-.093-2.741l10.67-50.948a5.59 5.59 0 0 1 .592-1.591L43.714 82.08c.14-.255.302-.5.488-.732l40.267-52.144a5.6 5.6 0 0 1 1.834-1.545L129.984 4.3a5.674 5.674 0 0 1 2.38-.674l26.171-1.452a5.898 5.898 0 0 1 2.009.244l-.059-.104z"/><path fill="#F4EFE4" d="m103.163 33.243 13.317-9.092c1.649-1.126 3.867.151 3.727 2.137l-1.137 16.499c-.128 1.788-2.09 2.81-3.623 1.87l-12.168-7.408c-1.487-.906-1.533-3.03-.105-4.006h-.011zm18.995-11.26-1.823 21.027a2.38 2.38 0 0 0 2.601 2.578l24.406-2.241c1.068-.093 1.939-.906 2.137-1.962l4.598-25.893c.302-1.718-1.266-3.17-2.95-2.729l-27.181 7.095a2.405 2.405 0 0 0-1.776 2.101l-.012.024zm34.069-6.112-4.958 23.605a2.392 2.392 0 0 0 2.566 2.868l26.02-2.496a2.404 2.404 0 0 0 2.125-1.939l1.057-5.724a2.394 2.394 0 0 0-.627-2.09l-13.19-13.747a2.433 2.433 0 0 0-1.289-.697l-8.929-1.649a2.396 2.396 0 0 0-2.775 1.858v.011zm-3.37 29.066 28.354-2.067a2.376 2.376 0 0 1 2.531 2.717l-3.704 26.055a2.404 2.404 0 0 1-2.45 2.055l-24.267-.905a2.392 2.392 0 0 1-2.299-2.346l-.383-23.094a2.376 2.376 0 0 1 2.218-2.415zm-30.547 1.931 23.674-.906a2.383 2.383 0 0 1 2.473 2.38v22.061a2.388 2.388 0 0 1-2.391 2.392h-29.364a2.391 2.391 0 0 1-2.311-3.007l5.678-21.155a2.38 2.38 0 0 1 2.217-1.765h.024zm-23.63-9.304 17.532 9.277a2.4 2.4 0 0 1 1.173 2.81l-6.27 20.574c-.418 1.359-1.927 2.067-3.228 1.498l-25.764-11.17c-1.428-.615-1.893-2.426-.94-3.657l14.501-18.682a2.4 2.4 0 0 1 3.008-.65h-.012zM80.334 62.76l27.1 11.007a2.406 2.406 0 0 1 1.429 2.775l-4.622 19.216a2.389 2.389 0 0 1-2.833 1.776l-37.039-8.197c-1.637-.36-2.403-2.252-1.474-3.646l14.548-22.014a2.381 2.381 0 0 1 2.891-.894v-.023zm-22.57 28.862a3.162 3.162 0 0 1 3.46-1.196c5.876 1.73 21.76 6.398 21.574 6.468-.186.07-10.706 24.986-13.806 32.313a3.18 3.18 0 0 1-3.019 1.939l-7.094-.232a3.068 3.068 0 0 1-1.486-.43l-16.36-9.498a3.17 3.17 0 0 1-.987-4.586l17.718-24.778zm30.443 4.986 12.226 2.043a3.17 3.17 0 0 1 2.508 4.053l-7.965 25.95a3.173 3.173 0 0 1-2.937 2.241c-5.968.163-21.62.546-21.376-.07.244-.615 10.798-24.789 14.119-32.371a3.144 3.144 0 0 1 3.425-1.846zM124.2 76.713l-2.009 19.901a2.388 2.388 0 0 0 2.45 2.624l22.816-.743a2.396 2.396 0 0 0 2.31-2.531l-1.161-19.379a2.387 2.387 0 0 0-2.415-2.24l-19.646.231a2.377 2.377 0 0 0-2.345 2.148v-.011zm26.941.049v19.39c0 1.242.94 2.264 2.182 2.38l21.574 1.893a2.387 2.387 0 0 0 2.577-2.055l2.833-20.587c.198-1.404-.882-2.67-2.299-2.716l-24.406-.697a2.387 2.387 0 0 0-2.45 2.392h-.011zm-9.405 23.686 32.952.569c2.032.035 3.518 1.951 3.018 3.936l-5.654 22.734a3.165 3.165 0 0 1-3.216 2.404l-28.668-1.266a3.167 3.167 0 0 1-3.019-3.367l1.359-22.038a3.16 3.16 0 0 1 3.216-2.972h.012zm-17.012 1.774c2.311 0 5.759 0 8.337-.034a3.172 3.172 0 0 1 3.181 3.436l-1.765 20.749a3.167 3.167 0 0 1-2.786 2.88l-11.844 1.393c-2.182.255-3.959-1.742-3.448-3.878l5.248-22.107a3.17 3.17 0 0 1 3.089-2.439h-.012zm-9.255 31.631 16.813-1.951a3.177 3.177 0 0 1 3.518 3.518l-2.636 22.665a3.16 3.16 0 0 1-3.216 2.798l-18.659-.395a3.176 3.176 0 0 1-3.03-3.855l4.482-20.33a3.147 3.147 0 0 1 2.728-2.462v.012zm-6.421 30.491 1.242 25.626a2.552 2.552 0 0 0 2.543 2.427h16.65a2.555 2.555 0 0 0 2.543-2.346l2.009-25.625a2.547 2.547 0 0 0-2.543-2.74h-19.901a2.55 2.55 0 0 0-2.543 2.67v-.012zm29.214-29.897-2.171 22.99a3.175 3.175 0 0 0 3.1 3.471l22.618.36a3.181 3.181 0 0 0 3.17-2.589l4.168-22.27a3.163 3.163 0 0 0-2.972-3.75l-24.616-1.08a3.177 3.177 0 0 0-3.297 2.868zm-2.45 30.184c-.325 5.759-1.265 20.11-1.66 26.043a2.535 2.535 0 0 0 2.461 2.706c2.996.093 7.931.185 11.205.244a4.888 4.888 0 0 0 4.598-3.008c2.415-5.805 7.628-18.333 10.125-24.383.685-1.648-.511-3.471-2.299-3.518l-21.829-.476a2.541 2.541 0 0 0-2.601 2.392zm-14.165 29.992 24.116.871c2.265.081 3.635 2.543 2.497 4.505l-14.804 25.776a3.05 3.05 0 0 1-1.858 1.417l-12.76 3.309c-2.044.534-3.983-1.161-3.751-3.263l3.449-29.944a3.007 3.007 0 0 1 3.1-2.659l.011-.012zm-29.537.385 21.631-.418c1.823-.034 3.263 1.545 3.042 3.356l-3.611 30.873c-.244 2.067-2.45 3.263-4.308 2.357L88.29 221.098a3.013 3.013 0 0 1-1.66-3.077l2.542-20.377a3 3 0 0 1 2.926-2.636h.012zm-4.51-60.565 18.207.801c1.881.082 3.274 1.788 2.995 3.646l-2.833 18.322a3.177 3.177 0 0 1-3.367 2.682l-20.807-1.544c-2.032-.151-3.39-2.148-2.798-4.099l5.422-17.578a3.162 3.162 0 0 1 3.17-2.23h.012zm-26.434-1.045 17.474.384c2.09.046 3.565 2.066 2.973 4.075l-5.457 18.276a3.174 3.174 0 0 1-3.054 2.264c-5.713-.035-19.739-.151-19.739-.337 0-.186 3.31-15.86 4.645-22.142a3.168 3.168 0 0 1 3.17-2.508l-.012-.012zM38.72 122.533l15.907 8.453a3.173 3.173 0 0 1 1.603 3.518l-4.923 21.248a3.174 3.174 0 0 1-4.076 2.299l-21.805-7.176c-1.823-.592-2.694-2.659-1.87-4.377l10.81-22.525a3.164 3.164 0 0 1 4.343-1.429l.011-.011zm43.184 37.015 23.35 2.391a2.552 2.552 0 0 1 2.287 2.659l-.743 14.63a2.543 2.543 0 0 1-2.693 2.415l-23.698-1.382a2.537 2.537 0 0 1-2.392-2.716l1.091-15.629a2.544 2.544 0 0 1 2.799-2.357v-.011zm-4.776 2.588-1.022 16.766a2.548 2.548 0 0 1-1.555 2.195l-21.33 8.929a2.546 2.546 0 0 1-2.136-.082l-2.171-1.103a2.56 2.56 0 0 1-1.394-2.334l.592-23.21a2.542 2.542 0 0 1 2.404-2.473l23.93-1.382a2.548 2.548 0 0 1 2.694 2.694h-.012zm-52.291-9.43 19.019 7.083a2.549 2.549 0 0 1 1.66 2.462l-.778 24.998a2.546 2.546 0 0 1-2.694 2.462l-24.023-1.429a2.557 2.557 0 0 1-2.357-3.018l5.77-30.653a2.548 2.548 0 0 1 3.391-1.916l.012.011zm-6.791 37.995 24.395 1.498a3.012 3.012 0 0 1 2.81 3.309l-2.973 28.853c-.197 1.858-2.02 3.101-3.82 2.59l-18.496-5.26a3.028 3.028 0 0 1-2.171-2.543l-2.938-25.091a3.01 3.01 0 0 1 3.17-3.356h.023zm31.266 8.859 20.842-2.461a3.012 3.012 0 0 1 3.344 3.286l-1.742 17.88a3.01 3.01 0 0 1-1.87 2.497l-20.33 8.162c-2.044.825-4.238-.754-4.122-2.949l1.23-23.582a3.017 3.017 0 0 1 2.648-2.833zM210.461 37.91l-14.235 8.035a2.73 2.73 0 0 0-1.393 2.275l-.871 19.368a2.758 2.758 0 0 0 2.752 2.879h15.953a2.754 2.754 0 0 0 2.752-2.833l-.836-27.402c-.058-2.067-2.299-3.332-4.099-2.31l-.023-.012zm24.959-14.102c-4.807 2.16-13.19 5.98-16.743 7.605a2.74 2.74 0 0 0-1.602 2.601l.58 15.907a2.75 2.75 0 0 0 3.228 2.613l17.765-3.135a2.746 2.746 0 0 0 2.264-2.926l-1.626-20.354a2.747 2.747 0 0 0-3.866-2.288v-.023zm7.096-4.998 8.012-4.83a2.77 2.77 0 0 1 1.416-.394h9.695a2.748 2.748 0 0 1 2.752 2.81l-.499 22.258a2.756 2.756 0 0 1-2.009 2.59l-16.209 4.516a2.746 2.746 0 0 1-3.483-2.531l-.987-21.957a2.763 2.763 0 0 1 1.324-2.484l-.012.023zm27.193-3.448 14.201 2.09a2.756 2.756 0 0 1 2.345 2.903l-1.312 19.436a2.76 2.76 0 0 1-3.042 2.555l-14.072-1.51a2.745 2.745 0 0 1-2.45-2.902l1.196-20.018a2.74 2.74 0 0 1 3.146-2.554h-.012zm18.557 8.39-.534 16.313a2.759 2.759 0 0 0 2.485 2.833l14.537 1.37c1.985.186 3.506-1.741 2.856-3.634l-4.494-13.039a2.783 2.783 0 0 0-1.393-1.58l-9.498-4.643c-1.788-.883-3.889.383-3.959 2.38zM219.433 54.41l16.429-1.997a2.748 2.748 0 0 1 3.065 3.018l-2.275 22.003a2.741 2.741 0 0 1-2.88 2.462l-14.154-.755a2.752 2.752 0 0 1-2.6-2.752V57.14a2.739 2.739 0 0 1 2.415-2.73zm23.316-4.329L260.7 43.94c1.823-.627 3.692.766 3.634 2.682l-.557 18.276a2.745 2.745 0 0 1-3.042 2.647l-18.671-1.985a2.75 2.75 0 0 1-2.438-3.077l1.266-10.148a2.764 2.764 0 0 1 1.834-2.264l.023.011zm27.495-7.002 17.452 2.427a2.752 2.752 0 0 1 2.368 2.914l-1.3 18.23a2.747 2.747 0 0 1-2.938 2.542l-16.743-1.15a2.742 2.742 0 0 1-2.554-2.82l.592-19.507a2.739 2.739 0 0 1 3.123-2.636zm24.637 1.779 12.947.87a2.74 2.74 0 0 1 2.461 1.997l2.833 9.963c.105.348.128.72.081 1.091l-1.857 15.048a2.761 2.761 0 0 1-3.228 2.369l-16.151-2.95a2.746 2.746 0 0 1-2.241-2.972l2.241-22.932a2.746 2.746 0 0 1 2.926-2.473l-.012-.011zm-3.179 29.952 15.733 3.553c1.521.349 2.462 1.893 2.044 3.402l-4.877 18.09a2.75 2.75 0 0 1-3.611 1.869l-17.474-6.455a2.752 2.752 0 0 1-1.568-3.68l6.619-15.188a2.748 2.748 0 0 1 3.123-1.58l.011-.01zm-6.54.44-6.061 16.465a2.759 2.759 0 0 1-2.961 1.776l-23.396-3.286a2.758 2.758 0 0 1-2.311-3.309l3.286-15.164a2.747 2.747 0 0 1 2.891-2.16l26.171 1.986a2.742 2.742 0 0 1 2.369 3.692h.012zm-4.525 22.285 18.206 5.748a2.755 2.755 0 0 1 1.544 4.017l-9.51 16.151c-.777 1.312-2.473 1.753-3.773.964l-14.851-8.848a2.74 2.74 0 0 1-1.079-3.53l6.153-13.05a2.76 2.76 0 0 1 3.321-1.452h-.011zm-28.09-5.874 19.867 3.263c1.741.29 2.775 2.124 2.101 3.762l-5.434 13.283a2.756 2.756 0 0 1-3.378 1.579l-16.232-5.132a2.753 2.753 0 0 1-1.893-3.054l1.8-11.402a2.75 2.75 0 0 1 3.158-2.287l.011-.012zm18.624 25.541 11.971 8.453c1.579 1.115 1.544 3.46-.058 4.54l-16.395 10.926a2.748 2.748 0 0 1-3.785-.72l-6.409-9.196a2.75 2.75 0 0 1 .371-3.576l10.822-10.183a2.753 2.753 0 0 1 3.471-.244h.012zm-21.491-7.139 12.575 4.389c1.927.674 2.473 3.135 1.022 4.563l-8.662 8.465a2.756 2.756 0 0 1-3.739.104l-6.757-5.945a2.758 2.758 0 0 1-.732-3.111l2.845-6.909a2.76 2.76 0 0 1 3.448-1.556zm-4.259 14.816 15.86 16.592a2.726 2.726 0 0 1-.627 4.25l-17.695 10.043a2.73 2.73 0 0 1-3.936-1.532l-6.734-21.039a2.737 2.737 0 0 1 1.103-3.112l8.58-5.597a2.72 2.72 0 0 1 3.449.395zM219.6 80.25l13.55 1.102a2.75 2.75 0 0 1 2.473 3.286l-3.472 17.022a2.76 2.76 0 0 1-2.891 2.194l-12.505-.871a2.75 2.75 0 0 1-2.531-3.123l2.427-17.254a2.752 2.752 0 0 1 2.949-2.357zm-7.384 25.47 12.063-.604c.488-.023.976.082 1.405.314l2.473 1.3a2.704 2.704 0 0 1 1.278 1.452l5.19 15.837a2.718 2.718 0 0 1-1.138 3.274c-4.203 2.555-14.119 5.992-20.598 7.722-1.927.511-3.878-.291-3.832-2.288l.593-24.371a2.712 2.712 0 0 1 2.589-2.647l-.023.011zm-1.64 33.73 15.988-5.968a2.722 2.722 0 0 1 3.483 1.545l8.082 20.458a2.716 2.716 0 0 1-1.904 3.646l-25.394 5.98c-1.776.418-3.46-.999-3.332-2.822l1.324-20.47a2.703 2.703 0 0 1 1.765-2.369h-.012zm-14.609-66.725 15.396-.487a2.759 2.759 0 0 1 2.833 2.96l-2.009 26.287a2.748 2.748 0 0 1-2.74 2.543h-19.053a2.748 2.748 0 0 1-2.683-3.344l5.667-25.8a2.746 2.746 0 0 1 2.6-2.159h-.011zM189.189 106h15.268a2.713 2.713 0 0 1 2.717 2.787l-.615 23.407a2.722 2.722 0 0 1-2.996 2.636l-18.972-1.974a2.712 2.712 0 0 1-2.38-3.239l4.308-21.434a2.723 2.723 0 0 1 2.67-2.183zm-4.134 29.362 18.391 1.706a2.714 2.714 0 0 1 2.462 2.833l-1.15 23.884a2.708 2.708 0 0 1-2.24 2.543l-7.443 1.324a2.628 2.628 0 0 1-1.405-.128l-14.816-5.411a2.724 2.724 0 0 1-1.718-3.17l5.016-21.503a2.719 2.719 0 0 1 2.903-2.09v.012zm-6.19 29.805 11.564 3.704a2.582 2.582 0 0 1 1.719 3.112l-4.436 17.416a2.587 2.587 0 0 1-3.576 1.73l-13.352-5.979a2.592 2.592 0 0 1-1.336-3.356l6.224-15.14a2.588 2.588 0 0 1 3.193-1.487zm17.128 9.868 15.663.999c1.823.139 2.938 2.066 2.148 3.715l-8.36 12.343a2.584 2.584 0 0 1-2.554 1.463l-10.554-.906a2.594 2.594 0 0 1-2.288-3.239l3.251-12.436a2.57 2.57 0 0 1 2.706-1.927l-.012-.012zm21.468.837a2.583 2.583 0 0 1 2.624-1.486c3.158.336 9.683 1.323 13.979 1.985a4.064 4.064 0 0 1 3.356 4.795c-.592 3.019-1.382 7.037-1.962 9.8a2.59 2.59 0 0 1-3.867 1.695l-15.152-9.033a2.589 2.589 0 0 1-1.022-3.321l2.055-4.435h-.011zm-2.821 9.726 16.081 8.499a2.597 2.597 0 0 1 .998 3.657l-13.759 22.258c-1.254 2.021-4.331 1.44-4.76-.894l-4.737-25.88a2.578 2.578 0 0 1 .22-1.614l2.404-4.865a2.607 2.607 0 0 1 3.541-1.15l.012-.011zm-24.384 9.046 14.909.929a2.609 2.609 0 0 1 2.403 2.206l4.192 27.669a2.59 2.59 0 0 1-2.102 2.938l-24.046 4.389a2.57 2.57 0 0 1-2.415-.848l-3.53-4.04a2.591 2.591 0 0 1-.534-2.439l8.476-28.946a2.583 2.583 0 0 1 2.647-1.858zm-20.68-7.02 14.223 5.957a2.59 2.59 0 0 1 1.452 3.239l-8.871 25.939a2.594 2.594 0 0 1-3.762 1.405l-16.929-9.846a2.607 2.607 0 0 1-.998-3.449l11.576-22.049a2.583 2.583 0 0 1 3.297-1.184l.012-.012zM321.11 31.391l19.472-5.933a2.773 2.773 0 0 1 3.506 2.032l5.736 24.975a2.755 2.755 0 0 1-1.602 3.158l-20.842 8.975a2.766 2.766 0 0 1-3.832-2.113l-4.365-28.017a2.785 2.785 0 0 1 1.927-3.077zm27.334-9.492 17.381-2.079a2.774 2.774 0 0 1 3.066 2.3l4.04 24.58a2.77 2.77 0 0 1-2.043 3.135l-16.081 4.145a2.77 2.77 0 0 1-3.402-2.137l-5.341-26.647a2.776 2.776 0 0 1 2.38-3.297zm26.59.841 15.663 4.9a2.781 2.781 0 0 1 1.881 2.078l2.195 10.461a2.773 2.773 0 0 1-1.905 3.216c-3.367 1.022-9.509 2.67-13.549 3.75a3.738 3.738 0 0 1-4.656-2.984 4191.44 4191.44 0 0 0-3.182-18.298c-.36-2.044 1.568-3.74 3.553-3.124zm1.947 26.981 15.593-5.074a2.772 2.772 0 0 1 3.588 2.171l1.649 9.672a2.772 2.772 0 0 1-.883 2.531l-10.775 9.66a2.759 2.759 0 0 1-4.365-.917l-6.468-14.258a2.765 2.765 0 0 1 1.661-3.773v-.012zm-31.128 9.641 23.245-7.826a2.762 2.762 0 0 1 3.355 1.382l8.639 17.277a2.77 2.77 0 0 1-.987 3.576l-20.691 13.132a2.765 2.765 0 0 1-3.959-1.103l-11.181-22.583a2.766 2.766 0 0 1 1.602-3.855h-.023zm-20.616 8.816 13.735-6.502a2.772 2.772 0 0 1 3.716 1.393l10.101 23.048a2.776 2.776 0 0 1-1.579 3.715l-17.857 6.549a2.77 2.77 0 0 1-3.635-1.904l-5.979-23.094a2.752 2.752 0 0 1 1.498-3.193v-.012zm-3.335 12.058c.372-1.092 1.928-1.01 2.195.104 1.114 4.656 2.74 12.4 3.541 16.278a2.712 2.712 0 0 1-1.788 3.124c-1.8.615-4.366 1.486-6.607 2.252-2.24.767-4.249-1.335-3.518-3.506l6.166-18.24.011-.013zm-9.178 26.086 13.074-3.228a2.684 2.684 0 0 1 3.297 2.206l2.88 19.135a2.683 2.683 0 0 1-2.415 3.077l-22.595 2.09c-1.974.185-3.449-1.754-2.763-3.611l6.653-18.009a2.714 2.714 0 0 1 1.881-1.684l-.012.024zm-15.076 26.801 25.01-2.833c1.37-.151 2.647.755 2.925 2.113l2.357 11.1a2.69 2.69 0 0 1-2.484 3.24l-28.412 1.556a2.688 2.688 0 0 1-2.822-2.973l1.057-9.823a2.68 2.68 0 0 1 2.369-2.38zm-5.055 9.798-5.863 29.736a2.466 2.466 0 0 1-1.823 1.916l-11.135 2.81a2.475 2.475 0 0 1-3.077-2.323l-.557-18.856a2.44 2.44 0 0 1 .952-2.02l17.556-13.689c1.811-1.405 4.389.185 3.947 2.426zm-24.612 19.378-.453 15.594a2.481 2.481 0 0 1-1.452 2.183l-15.117 6.873c-1.846.836-3.866-.778-3.448-2.763l2.902-13.701a2.456 2.456 0 0 1 1.01-1.521l12.668-8.766c1.672-1.15 3.936.081 3.878 2.101h.012zm2.83 20.772 4.261 18.206a2.465 2.465 0 0 1-1.184 2.705l-16.616 9.498a2.462 2.462 0 0 1-3.599-1.463l-5.422-18.937a2.48 2.48 0 0 1 1.289-2.903l17.776-8.766c1.428-.709 3.135.104 3.506 1.648l-.011.012zm24.383-33.357 18.856-.407a2.478 2.478 0 0 1 2.531 2.427l.36 19.785a2.486 2.486 0 0 1-2.624 2.52l-22.595-1.37a2.468 2.468 0 0 1-2.275-2.926l3.378-18.009a2.493 2.493 0 0 1 2.381-2.02h-.012zm35.506-20.153 12.005-.256a2.692 2.692 0 0 1 2.601 1.823l3.646 10.798a2.688 2.688 0 0 1-2.264 3.53l-13.922 1.498a2.695 2.695 0 0 1-2.949-2.287l-1.718-12.053a2.684 2.684 0 0 1 2.601-3.065v.012zm1.501-17.35a2.672 2.672 0 0 1 1.835-2.775c3.39-1.115 10.298-3.309 14.583-4.656a3.779 3.779 0 0 1 4.772 2.554c1.115 3.82 2.798 9.603 3.576 12.32.279.952 0 1.985-.72 2.67l-2.926 2.822a2.665 2.665 0 0 1-1.695.743l-15.535.975a2.69 2.69 0 0 1-2.845-2.45l-1.045-12.203zm29.2 12.98 5.144 11.054a2.679 2.679 0 0 1-.86 3.309l-3.634 2.635a2.676 2.676 0 0 1-1.312.5l-7.094.685a2.688 2.688 0 0 1-2.822-1.87l-2.972-9.439a2.677 2.677 0 0 1 1.219-3.135l8.557-4.935a2.68 2.68 0 0 1 3.774 1.196zm-6.724-19.61 4.238 12.099a2.687 2.687 0 0 0 3.75 1.509l21.655-10.972a2.683 2.683 0 0 0 1.149-3.669l-4.853-8.999a2.655 2.655 0 0 0-1.928-1.37l-7.268-1.207a2.689 2.689 0 0 0-1.928.406l-13.77 9.092a2.686 2.686 0 0 0-1.057 3.135l.012-.024zm10.091 15.306 19.913-10.566a2.69 2.69 0 0 1 3.46.824l.325.465a2.7 2.7 0 0 1 .464 1.881l-1.532 12.215a2.677 2.677 0 0 1-1.312 1.985l-13.992 8.128a2.684 2.684 0 0 1-3.785-1.196l-4.714-10.241a2.679 2.679 0 0 1 1.185-3.495h-.012zM321.1 163.765l16.371-2.426a2.471 2.471 0 0 1 2.81 2.101l2.229 16.012a2.471 2.471 0 0 1-1.997 2.775c-5.782 1.056-20.295 3.692-20.168 3.39.128-.302-.917-13.724-1.347-19.216a2.459 2.459 0 0 1 2.102-2.636zm22.085-3.43 17.834-5.445a2.475 2.475 0 0 1 3.17 2.043l2.438 18.81a2.47 2.47 0 0 1-2.078 2.763l-17.451 2.694a2.46 2.46 0 0 1-2.81-2.02l-2.822-16.058a2.48 2.48 0 0 1 1.719-2.798v.011zm24.974-6.687 7.129-1.208a2.502 2.502 0 0 1 1.788.383l2.532 1.684a2.455 2.455 0 0 1 1.091 1.869l1.335 17.707a2.467 2.467 0 0 1-2.101 2.636c-2.288.336-5.91.859-9.057 1.323-1.393.209-2.67-.801-2.81-2.206l-1.95-19.506c-.128-1.289.766-2.473 2.043-2.682zm1.232 26.705 9.138-1.672c1.544-.279 2.961.929 2.914 2.496l-.278 11.414a2.486 2.486 0 0 1-.883 1.834l-6.119 5.097c-1.451 1.208-3.669.407-4.017-1.451l-2.752-14.839a2.47 2.47 0 0 1 1.985-2.879h.012zm-26.855 4.303 20.272-3.773a2.475 2.475 0 0 1 2.891 2.02l3.379 19.947c.151.894-.197 1.8-.905 2.357l-17.324 13.62a2.487 2.487 0 0 1-1.858.511l-2.786-.372a2.464 2.464 0 0 1-2.125-2.159l-3.542-29.434c-.15-1.3.72-2.485 2.009-2.728l-.011.011zm-20.147 2.295 13.666-2.438a2.469 2.469 0 0 1 2.903 2.333l.359 8.593a2.47 2.47 0 0 1-1.997 2.531l-14.653 2.891a2.48 2.48 0 0 1-2.949-2.601l.627-9.045a2.482 2.482 0 0 1 2.032-2.264h.012zm-.443 16.033 14.851-3.425a2.463 2.463 0 0 1 2.996 2.043l2.751 18.334a2.46 2.46 0 0 1-1.498 2.647l-16.023 6.641c-1.556.651-3.286-.418-3.413-2.101l-1.579-21.55a2.459 2.459 0 0 1 1.915-2.589zm-19.864-27.179 13.829.557a2.462 2.462 0 0 1 2.369 2.543l-.651 21.77a2.477 2.477 0 0 1-2.473 2.404h-12.621a2.47 2.47 0 0 1-2.473-2.415l-.557-22.328a2.477 2.477 0 0 1 2.577-2.531zm.092 29.661 13.399-.348a2.468 2.468 0 0 1 2.531 2.334l1.242 22.014c.081 1.382-.998 2.554-2.38 2.612l-22.003.825c-1.718.07-2.984-1.602-2.438-3.24l7.35-22.49a2.482 2.482 0 0 1 2.287-1.707h.012zm-27.401-26.353 13.678-4.087c.313-.093.627-.128.952-.093l5.654.557a2.47 2.47 0 0 1 2.23 2.404l.638 26.577a2.473 2.473 0 0 1-3.088 2.45l-16.72-4.284a2.47 2.47 0 0 1-1.823-1.974l-3.239-18.763a2.48 2.48 0 0 1 1.73-2.787h-.012zm2.659 25.268 16.882 5.899a2.475 2.475 0 0 1 1.521 3.134L289.6 231.76a2.484 2.484 0 0 1-2.752 1.649l-18.484-3.077a2.486 2.486 0 0 1-1.545-.918l-8.743-11.227a2.474 2.474 0 0 1 .685-3.646l16.592-9.939a2.489 2.489 0 0 1 2.09-.209l-.011-.012zM406.697 53.717l-2.741 8.081c-.627 1.847 1.011 3.67 2.915 3.24l5.573-1.266c1.509-.336 2.345-1.962 1.753-3.39l-2.833-6.816c-.882-2.125-3.924-2.02-4.667.151zm6.663-18.437 9.927-3.333a2.493 2.493 0 0 1 3.007 1.208l9.045 17.172a2.503 2.503 0 0 1-1.033 3.367l-14.316 7.617a2.502 2.502 0 0 1-3.472-1.23l-6.607-15.57a2.496 2.496 0 0 1-.069-1.766l1.95-5.91a2.487 2.487 0 0 1 1.579-1.579l-.011.023zm15.882-6.73 14.42-7.128a2.495 2.495 0 0 1 3.368 1.184l7.21 15.42a2.5 2.5 0 0 1-1.44 3.413l-15.117 5.271a2.503 2.503 0 0 1-3.077-1.277l-6.514-13.561a2.497 2.497 0 0 1 1.15-3.321zm21.925-9.444 14.398-1.625c.72-.082 1.439.15 1.974.65l.696.65c.511.476.801 1.138.801 1.835v12.377a2.495 2.495 0 0 1-1.741 2.38l-7.942 2.508a2.484 2.484 0 0 1-2.973-1.242l-7.152-13.899c-.801-1.555.209-3.425 1.939-3.622v-.012zm19.897 3.79c-.174 3.38-.406 7.965-.534 10.334a2.51 2.51 0 0 0 1.312 2.322l2.369 1.278a2.498 2.498 0 0 0 2.845-.326l7.117-6.304c1.266-1.127 1.068-3.159-.383-4.018l-8.952-5.294c-1.614-.953-3.669.139-3.762 2.02l-.012-.012zm6.321 15.644 7.687-5.921c1.323-1.022 3.262-.465 3.855 1.103l5.933 15.744a2.498 2.498 0 0 1-2.032 3.356l-8.929 1.103a2.504 2.504 0 0 1-2.601-1.486L476.596 41.5a2.502 2.502 0 0 1 .766-2.96h.023zm4.364 18.122-2.461 2.624a2.486 2.486 0 0 0-.291 3.03l5.527 8.836a2.5 2.5 0 0 0 3.553.72l8.836-6.177a2.5 2.5 0 0 0 .987-2.67l-1.753-6.712a2.502 2.502 0 0 0-2.764-1.846l-10.148 1.428a2.501 2.501 0 0 0-1.474.767h-.012zm-5.481 5.402 6.63 8.801a2.496 2.496 0 0 1-.987 3.785l-11.483 5.086a2.489 2.489 0 0 1-3.344-1.405l-4.227-11.263a2.496 2.496 0 0 1 1.649-3.274l9.08-2.612c.998-.29 2.067.07 2.682.894v-.012zM457.794 42.71l11.96-4.725a2.495 2.495 0 0 1 3.193 1.3l6.351 14.224a2.49 2.49 0 0 1-1.486 3.378l-12.413 4.157a2.495 2.495 0 0 1-3.088-1.382l-5.898-13.654a2.492 2.492 0 0 1 1.37-3.31l.011.012zm-18.275 5.894 12.005-4.191a2.5 2.5 0 0 1 3.1 1.323l6.108 13.434c.627 1.382-.116 3.007-1.568 3.425l-13.132 3.832a2.494 2.494 0 0 1-3.03-1.51l-4.981-13.073a2.49 2.49 0 0 1 1.509-3.24h-.011zm6.573 20.052 12.122-4.087a2.503 2.503 0 0 1 3.17 1.579l4.586 13.712a2.493 2.493 0 0 1-1.37 3.077l-12.9 5.632a2.505 2.505 0 0 1-3.425-1.684l-3.808-15.269a2.501 2.501 0 0 1 1.625-2.972v.012zm-3.646 3.808c1.161 4.041 3.356 11.38 4.459 15.06a2.508 2.508 0 0 1-1.521 3.053l-14.027 5.237a2.492 2.492 0 0 1-3.309-1.811l-3.135-14.398a2.514 2.514 0 0 1 1.382-2.798l12.691-5.91a2.484 2.484 0 0 1 3.448 1.567h.012zm-21.376-9.649 13.504-7.292a2.504 2.504 0 0 1 3.53 1.324l3.286 8.847a2.496 2.496 0 0 1-1.289 3.135l-14.433 6.7a2.49 2.49 0 0 1-3.448-1.58l-2.357-8.255a2.49 2.49 0 0 1 1.219-2.88h-.012zm2.765 18.676 3.518 13.84a2.488 2.488 0 0 1-1.719 3.008l-9.3 2.717a2.495 2.495 0 0 1-3.1-1.719l-3.17-11.286a2.495 2.495 0 0 1 1.138-2.821l8.952-5.271a2.488 2.488 0 0 1 3.681 1.532zm-19.091-13.805 10.16-3.17a2.5 2.5 0 0 1 3.123 1.614l2.996 9.288a2.505 2.505 0 0 1-1.138 2.938l-8.511 4.83a2.492 2.492 0 0 1-3.529-1.196L403.2 71.041a2.495 2.495 0 0 1 1.556-3.355h-.012zm-2.587 4.655 5.933 14.2a2.508 2.508 0 0 1-1.033 3.112l-11.367 6.712a2.492 2.492 0 0 1-3.46-.953l-5.295-9.648a2.498 2.498 0 0 1 .383-2.926l10.74-11.263c1.243-1.3 3.414-.906 4.111.755l-.012.011zm7.641 21.049 3.181 11.088a2.498 2.498 0 0 1-1.509 3.019l-10.81 4.145a2.5 2.5 0 0 1-3.309-1.684l-2.566-9.579a2.498 2.498 0 0 1 1.196-2.833l10.194-5.666a2.498 2.498 0 0 1 3.611 1.498l.012.012zm7.08 8.734 5.481-1.44a2.493 2.493 0 0 1 2.949 1.486l3.878 9.649a2.512 2.512 0 0 1-1.544 3.309l-6.433 2.102a2.5 2.5 0 0 1-3.181-1.696l-2.926-10.31a2.503 2.503 0 0 1 1.765-3.1h.011zm-2.389 8.159 2.171 5.956a2.496 2.496 0 0 1-1.649 3.251l-10.403 3.031a2.506 2.506 0 0 1-3.124-1.788l-1.288-5.156a2.503 2.503 0 0 1 1.497-2.926l9.521-3.82a2.501 2.501 0 0 1 3.275 1.463v-.011zm17.974-.617 10.16-3.727a2.517 2.517 0 0 1 3.216 1.439l5.062 12.773a2.518 2.518 0 0 1-1.451 3.285l-10.949 4.134a2.513 2.513 0 0 1-3.286-1.579l-4.285-13.179a2.52 2.52 0 0 1 1.533-3.146zm16.216-6.595 10.868-4.435a2.515 2.515 0 0 1 3.298 1.417l4.714 12.052a2.509 2.509 0 0 1-1.266 3.193c-4.191 1.974-13.12 6.142-13.12 5.898 0-.244-4.006-10.217-5.875-14.85-.523-1.289.104-2.74 1.381-3.275zm16.42-6.451 4.981-2.393a2.509 2.509 0 0 1 1.834-.139l3.971 1.22a2.518 2.518 0 0 1 1.719 1.845l2.67 11.692a2.51 2.51 0 0 1-1.916 3.019l-6.56 1.44c-1.184.256-2.392-.36-2.856-1.474l-5.063-11.948a2.512 2.512 0 0 1 1.231-3.251l-.011-.012zM468 116.668l8.488-2.67c1.892-.593 3.692 1.126 3.193 3.042l-1.823 7.048a2.577 2.577 0 0 1-.999 1.439l-5.387 3.739c-1.533 1.057-3.635.163-3.925-1.684l-1.277-8.127a2.522 2.522 0 0 1 1.73-2.798v.011zm-15.533 6.818 8.987-4.145a2.521 2.521 0 0 1 3.518 1.741l2.148 9.753a2.52 2.52 0 0 1-1.126 2.683l-8.151 5.097a2.517 2.517 0 0 1-3.762-1.463l-2.996-10.706a2.52 2.52 0 0 1 1.37-2.972l.012.012zm-18.252 7.306 12.737-4.343a2.516 2.516 0 0 1 3.286 1.916l2.044 10.891a2.521 2.521 0 0 1-2.055 2.95l-12.366 2.089a2.512 2.512 0 0 1-2.845-1.811l-2.415-8.638a2.522 2.522 0 0 1 1.614-3.066v.012zm-16.7-10.757 10.241-3.622a2.51 2.51 0 0 1 3.228 1.579l3.007 9.045a2.516 2.516 0 0 1-1.788 3.239l-10.915 2.682a2.514 2.514 0 0 1-3.018-1.753l-2.334-8.104a2.529 2.529 0 0 1 1.579-3.077v.011zm-14.964 3.981 9.556-2.23a2.521 2.521 0 0 1 3.042 1.939l1.614 7.78a2.53 2.53 0 0 1-1.962 2.984l-13.074 2.658a2.523 2.523 0 0 1-2.973-1.939l-1.265-5.956a2.524 2.524 0 0 1 .998-2.578l3.182-2.264a2.73 2.73 0 0 1 .894-.406l-.012.012zm-5.248 13.484 3.483 12.122a2.531 2.531 0 0 1-1.405 3.007l-7.001 3.077a2.53 2.53 0 0 1-3.054-.824l-5.132-7.083a2.537 2.537 0 0 1 .314-3.321l8.65-8.116c1.37-1.288 3.622-.673 4.145 1.138zm5.678.952 9.835-2.02a2.523 2.523 0 0 1 3.019 2.206l.754 7.106a2.511 2.511 0 0 1-1.892 2.705l-8.836 2.206a2.528 2.528 0 0 1-3.065-1.857l-1.754-7.304a2.51 2.51 0 0 1 1.939-3.053v.011zm16.152-3.553 9.219-2.264a2.519 2.519 0 0 1 3.007 1.695l2.403 7.64a2.525 2.525 0 0 1-1.939 3.239c-4.516.825-12.899 2.334-12.865 2.056.035-.279-1.056-6.073-1.695-9.428a2.515 2.515 0 0 1 1.87-2.915v-.023zm-10.369 18.115 2.229 16.522a1.677 1.677 0 0 1-1.138 1.811l-16.627 5.469a1.67 1.67 0 0 1-2.194-1.544l-.465-16.766a1.668 1.668 0 0 1 1.115-1.626l14.862-5.225a1.682 1.682 0 0 1 2.218 1.359zm4.143 8.181 17.555-2.903a1.684 1.684 0 0 1 1.893 1.208l1.091 4.005a1.64 1.64 0 0 1-.023.976l-3.576 10.705a1.661 1.661 0 0 1-1.556 1.138l-13.898.209a1.68 1.68 0 0 1-1.695-1.509l-1.173-12.006a1.667 1.667 0 0 1 1.393-1.811l-.011-.012zm-20.69 18.196 16.802-5.283a1.647 1.647 0 0 1 1.497.255c.639.476.86 1.335.523 2.055l-12.424 26.659a1.684 1.684 0 0 1-2.473.673l-9.057-6.258a1.682 1.682 0 0 1-.65-1.869l4.668-15.129a1.662 1.662 0 0 1 1.103-1.103h.011zm20.784-1.283 13.62-.441a1.671 1.671 0 0 1 1.591 2.334l-6.491 14.943a1.67 1.67 0 0 1-2.264.836l-11.332-5.492a1.678 1.678 0 0 1-.79-2.218l4.203-9.022c.267-.568.836-.94 1.463-.963v.023zm-5.784 13.625 11.878 6.409a1.678 1.678 0 0 1 .65 2.323l-8.244 14.026a1.665 1.665 0 0 1-2.508.441l-9.637-7.977a1.663 1.663 0 0 1-.441-2.009l5.991-12.447a1.672 1.672 0 0 1 2.299-.743l.012-.023zm-19.729 8.071 19.738 17.37c.72.639.767 1.753.082 2.438l-5.457 5.458a9.433 9.433 0 0 1-5.98 2.74l-5.748.429a1.624 1.624 0 0 1-1.416-.615l-11.611-14.2a1.673 1.673 0 0 1-.07-2.02l8-11.321a1.67 1.67 0 0 1 2.473-.29l-.011.011zm-13.538 15.983a1.675 1.675 0 0 1 2.717-.151c2.021 2.519 5.655 7.129 8.093 10.24 1.196 1.533.465 3.786-1.405 4.32l-7.442 2.148a2.73 2.73 0 0 1-2.462-.488 2040.315 2040.315 0 0 0-5.294-4.191 1.667 1.667 0 0 1-.384-2.218l6.189-9.672-.012.012zM507.131 35.628l-.464 18.624c-.047 1.881 1.811 3.216 3.576 2.566l15.93-5.829a2.669 2.669 0 0 0 1.719-2.914l-2.799-17.834a2.676 2.676 0 0 0-3.622-2.067L508.815 33.2a2.696 2.696 0 0 0-1.684 2.416v.011zm20.26-7.315 2.473 17.764a2.668 2.668 0 0 0 3.205 2.241l12.11-2.624a2.68 2.68 0 0 0 2.067-2.16l3.007-17.532a2.656 2.656 0 0 0-2.705-3.112l-12.54.395c-.314 0-.616.07-.906.186l-5.051 2.009a2.678 2.678 0 0 0-1.66 2.844v-.011zm25.453-1.999-3.437 17.823a2.665 2.665 0 0 0 2.299 3.146l15.362 1.858a2.656 2.656 0 0 0 2.949-2.23l2.659-16.893a2.667 2.667 0 0 0-2.137-3.03L555.956 24.2a2.663 2.663 0 0 0-3.112 2.113zm22.349 5.51-3.147 14.815c-.441 2.055 1.556 3.785 3.53 3.054l5.724-2.113a2.66 2.66 0 0 0 1.742-2.497V34.158c0-.883-.43-1.696-1.15-2.195l-2.577-1.776c-1.568-1.08-3.727-.221-4.122 1.637zm4.193 19.649-10.542 2.693a2.678 2.678 0 0 0-2.009 2.67l.383 11.043c.082 2.461 3.17 3.495 4.726 1.59l10.322-12.62a2.69 2.69 0 0 0 .569-2.102l-.174-1.115a2.674 2.674 0 0 0-3.298-2.171l.023.012zm-14.095 1.489.429 22.339a2.688 2.688 0 0 1-1.73 2.554l-18.415 6.862a2.666 2.666 0 0 1-3.553-2.031l-5.411-30.7a2.665 2.665 0 0 1 2.079-3.065l6.444-1.359c.325-.07.662-.08.998-.023l16.952 2.856a2.66 2.66 0 0 1 2.218 2.578l-.011-.011zm-32.117 1.022 1.405 9.556a2.662 2.662 0 0 1-2.079 2.996l-19.111 4.052a2.668 2.668 0 0 1-3.205-2.287l-.824-6.897a2.65 2.65 0 0 1 1.741-2.822l18.531-6.71a2.665 2.665 0 0 1 3.542 2.124v-.012zm-24.952 15.657 4.32 21.968a2.663 2.663 0 0 1-1.649 2.996l-15.942 6.2a2.664 2.664 0 0 1-3.425-1.452l-4.157-9.962a2.664 2.664 0 0 1 .441-2.775L503.59 68.4c1.451-1.684 4.203-.952 4.632 1.23v.012zm5.665 3.067 20.482-4.98a2.656 2.656 0 0 1 3.24 2.066l2.879 14.42a2.666 2.666 0 0 1-1.684 3.02l-18.31 6.78a2.67 2.67 0 0 1-3.472-1.706l-5.039-16.22a2.664 2.664 0 0 1 1.916-3.38h-.012zm-7.209 29.158.511 13.852a2.357 2.357 0 0 1-2.218 2.438l-12.853.755a2.357 2.357 0 0 1-2.45-2.821l2.194-11.008a2.376 2.376 0 0 1 1.521-1.765l10.148-3.599a2.36 2.36 0 0 1 3.147 2.137v.011zm4.471 5.016 14.677-1.545a2.361 2.361 0 0 1 2.6 2.148l.894 10.532a2.348 2.348 0 0 1-2.345 2.554h-15.849a2.353 2.353 0 0 1-2.357-2.427l.267-8.987a2.361 2.361 0 0 1 2.113-2.275zm20.762-3.843 15.373-4.68a2.368 2.368 0 0 1 2.961 1.615l3.414 12.133c.127.465.116.952-.047 1.417l-2.241 6.479a2.35 2.35 0 0 1-1.637 1.509l-14.769 3.808a2.36 2.36 0 0 1-2.938-2.055l-1.776-17.741a2.368 2.368 0 0 1 1.66-2.497v.012zm19.597-4.229 3.658 10.393a2.365 2.365 0 0 0 2.833 1.497l12.865-3.436a2.352 2.352 0 0 0 1.683-2.81l-.778-3.344a2.332 2.332 0 0 0-1.091-1.486l-10.357-6.19a2.37 2.37 0 0 0-2.229-.104l-5.388 2.578a2.352 2.352 0 0 0-1.207 2.914l.011-.011zm4.818 15.054-3.066 6.641a2.382 2.382 0 0 0-.162 1.475l2.926 13.979c.36 1.707 2.391 2.45 3.762 1.37l13.108-10.299a2.375 2.375 0 0 0 .894-2.031l-1.01-13.33a2.365 2.365 0 0 0-2.926-2.113l-11.959 2.996a2.348 2.348 0 0 0-1.567 1.3v.012zm-4.655 11.85 1.858 12.54a2.357 2.357 0 0 1-1.799 2.647l-17.754 4.122a2.365 2.365 0 0 1-2.891-2.136l-.894-13.179a2.366 2.366 0 0 1 1.881-2.473l16.79-3.472a2.358 2.358 0 0 1 2.809 1.963v-.012zm-24.313-1.177 2.368 18.543a2.363 2.363 0 0 1-2.252 2.659l-18.241.708a2.356 2.356 0 0 1-2.438-2.566l1.707-19.588a2.346 2.346 0 0 1 2.403-2.148l14.166.337a2.367 2.367 0 0 1 2.287 2.055zm-37.096-3.504 13.573-1.103a2.356 2.356 0 0 1 2.543 2.508l-1.405 21.004a2.361 2.361 0 0 1-2.357 2.206h-12.76a2.36 2.36 0 0 1-2.357-2.427l.58-19.901a2.361 2.361 0 0 1 2.172-2.287h.011zm-4.542 13.051-.754 10.055a2.349 2.349 0 0 1-2.589 2.171l-7.977-.801c-1.951-.197-2.822-2.543-1.475-3.971l8.72-9.254a2.344 2.344 0 0 1 1.718-.743c1.37 0 2.45 1.161 2.357 2.531v.012zm8.986 18.181-5.91 28.923c-.337 1.649-2.09 2.601-3.657 1.997l-17.161-6.688a2.702 2.702 0 0 1-1.696-2.96l3.786-23.791a2.72 2.72 0 0 1 2.914-2.288l19.286 1.556a2.729 2.729 0 0 1 2.45 3.263l-.012-.012zm-27.609 1.652-3.773 25.08a2.718 2.718 0 0 1-2.973 2.299l-9.44-.976a2.717 2.717 0 0 1-2.426-2.995l1.904-17.869a2.735 2.735 0 0 1 1.393-2.102l11.321-6.235c1.974-1.091 4.342.557 4.006 2.787l-.012.011zm-24.545 8.385 1.509-.662c1.881-.824 3.959.639 3.808 2.682l-1.335 18.775a2.725 2.725 0 0 1-2.717 2.531h-3.46a2.723 2.723 0 0 1-2.682-3.204l3.274-18.125a2.71 2.71 0 0 1 1.591-2.009l.012.012zm-2.45 25.23 12.389 4.714a2.653 2.653 0 0 1 1.614 3.181l-5.446 20.006c-.464 1.718-2.461 2.496-3.971 1.556l-10.983-6.874a2.667 2.667 0 0 1-1.185-2.833l4.041-17.834a2.659 2.659 0 0 1 3.53-1.893l.011-.023zm10.889-5.503 8.221 1.359c1.811.302 2.775 2.31 1.881 3.913l-1.858 3.32a2.665 2.665 0 0 1-3.402 1.127l-6.526-2.926a2.656 2.656 0 0 1-1.555-2.671l.162-1.753a2.648 2.648 0 0 1 3.077-2.369zm4.829 14.105-5.759 21.457a2.656 2.656 0 0 0 1.649 3.181l19.216 7.025a2.653 2.653 0 0 0 3.541-2.148l3.135-24.279a2.651 2.651 0 0 0-1.973-2.914l-16.593-4.203c-1.404-.36-2.833.487-3.216 1.881zm9.974-14.545-3.425 8.511c-.581 1.428.185 3.042 1.648 3.518l12.888 4.145a2.647 2.647 0 0 0 3.344-1.742l2.822-9.08a2.656 2.656 0 0 0-1.788-3.332l-12.285-3.576a2.65 2.65 0 0 0-3.204 1.556zm31.945-24.228 15.86.592a2.725 2.725 0 0 1 2.624 2.717v21.98a2.734 2.734 0 0 1-2.972 2.717l-19.146-1.765a2.718 2.718 0 0 1-2.439-3.135l3.286-20.795a2.737 2.737 0 0 1 2.787-2.299v-.012zm22.975 1.425 15.152-1.776a2.724 2.724 0 0 1 3.042 2.798l-.743 20.656a2.7 2.7 0 0 1-1.707 2.426l-14.409 5.783c-1.788.72-3.738-.604-3.738-2.532v-24.673a2.723 2.723 0 0 1 2.403-2.705v.023zm20.147-.237-.744 19.251a2.727 2.727 0 0 0 2.508 2.821l18.427 1.44a2.725 2.725 0 0 0 2.868-2.113l2.647-11.797a2.672 2.672 0 0 0-.151-1.649l-5.364-12.749a2.72 2.72 0 0 0-3.181-1.579l-14.979 3.843a2.737 2.737 0 0 0-2.043 2.532h.012zm-7.99 26.727 9.243-3.054a2.906 2.906 0 0 1 1.544-.081l16.476 3.448c2.02.418 2.961 2.694 1.811 4.366l-11.646 16.917c-1.103 1.602-3.483 1.695-4.702.186l-14.073-17.324c-1.254-1.544-.557-3.831 1.347-4.458zm-2.97 5.657 12.505 18.717a2.652 2.652 0 0 1-1.01 3.843l-20.83 10.566c-1.603.813-3.542-.174-3.82-1.951l-3.565-22.757a2.654 2.654 0 0 1 1.347-2.74l11.901-6.514a2.66 2.66 0 0 1 3.483.847l-.011-.011zm-19.474 12.573 4.226 18.879a2.654 2.654 0 0 1-1.95 3.158l-13.318 3.309c-1.707.418-3.344-.894-3.286-2.647l.523-19.297a2.652 2.652 0 0 1 1.799-2.439l8.569-2.891a2.654 2.654 0 0 1 3.437 1.939v-.011zm-28.99 1.628 10.357.894a2.654 2.654 0 0 1 2.427 2.647v18.067a2.646 2.646 0 0 1-2.648 2.647h-12.481a2.659 2.659 0 0 1-2.636-2.949l2.125-18.961a2.65 2.65 0 0 1 2.868-2.345h-.012zm3.912-17.607-3.809 12.9a2.65 2.65 0 0 0 2.299 3.39l9.115.836a2.652 2.652 0 0 0 2.845-2.101l2.833-13.736a2.658 2.658 0 0 0-2.601-3.193h-8.139a2.66 2.66 0 0 0-2.543 1.904zm15.465.62-1.486 9.521c-.337 2.194 2.125 3.796 4.134 2.693l10.751-5.875c.859-.476 1.394-1.347 1.394-2.299v-2.728c0-1.359-1.08-2.497-2.497-2.636l-9.265-.917c-1.487-.151-2.822.847-3.042 2.252l.011-.011zm94.327-152.732v21.527a2.162 2.162 0 0 0 2.74 2.078l19.274-5.457a2.157 2.157 0 0 0 1.556-2.334l-2.659-21.654a2.144 2.144 0 0 0-2.822-1.777l-16.615 5.585a2.148 2.148 0 0 0-1.474 2.044v-.012zm23.964-8.301 2.055 22.502a2.149 2.149 0 0 0 2.566 1.916c4.888-.987 15.686-3.17 15.802-3.298.116-.128.047-18.67.012-25.892 0-1.428-1.37-2.45-2.74-2.055l-16.14 4.563a2.145 2.145 0 0 0-1.555 2.275v-.011zm22.561-6.062v32.696a2.165 2.165 0 0 0 2.264 2.16l9.138-.465a2.156 2.156 0 0 0 1.974-1.59l8.557-31.721a2.152 2.152 0 0 0-1.266-2.555l-8.708-3.553a2.175 2.175 0 0 0-1.509-.046l-8.987 3.03a2.163 2.163 0 0 0-1.463 2.044zm24.431 2.742-5.817 18.995c-.395 1.3.488 2.647 1.846 2.775 3.809.372 10.891.86 15.222 1.138a3.628 3.628 0 0 0 3.855-3.437c.198-4.04.523-10.334.662-13.062.046-.86-.43-1.66-1.207-2.044l-11.553-5.677a2.167 2.167 0 0 0-3.019 1.3l.011.012zm-5.098 23.746 15.767.65a2.137 2.137 0 0 1 1.51.709l.987 1.08c.441.488.638 1.15.534 1.8l-2.09 12.563a2.171 2.171 0 0 1-1.208 1.602l-14.664 6.92c-1.428.673-3.077-.371-3.077-1.95V49.7a2.16 2.16 0 0 1 2.241-2.16zm-22.365 10.491 15.477-1.138a2.153 2.153 0 0 1 2.311 2.044l.754 15.733c.035.72-.29 1.404-.87 1.834l-16.232 12.017c-1.429 1.057-3.437.035-3.437-1.73V60.18c0-1.126.871-2.067 1.997-2.148zm-16.79-3.621 14.154-4.145a2.153 2.153 0 0 1 2.763 2.067v1.544c0 1.196-.963 2.16-2.159 2.16h-14.526c-.952 0-1.149-1.347-.232-1.614v-.012zm-12.558 3.762h23.129a2.166 2.166 0 0 1 2.16 2.24l-.604 15.966a2.16 2.16 0 0 1-1.939 2.067L610.25 80.58a2.17 2.17 0 0 1-2.368-2.055l-.732-18.102a2.16 2.16 0 0 1 2.16-2.24l-.024-.012zm-.061 24.579 22.27-2.694a2.162 2.162 0 0 1 2.415 1.986l.639 9.045a2.162 2.162 0 0 1-1.487 2.206c-4.33 1.382-16.243 4.737-21.352 6.165a2.138 2.138 0 0 1-2.694-1.776c-.441-3.367-1.231-9.393-1.672-12.505a2.166 2.166 0 0 1 1.881-2.438v.011zm-25.602-9.404 7.21-10.055a2.14 2.14 0 0 1 1.324-.859l10.461-2.113a2.155 2.155 0 0 1 2.578 2.113v17.173a2.151 2.151 0 0 1-1.974 2.148l-16.046 1.323a2.154 2.154 0 0 1-2.264-1.614l-1.638-6.328a2.167 2.167 0 0 1 .337-1.8l.012.012zm-4.33 5.472-5.445 4.354a2.152 2.152 0 0 0-.291 3.088c2.021 2.37 5.713 6.433 7.849 8.767.639.696 1.812.325 1.916-.616.314-2.705.801-6.897.941-8.162a2.34 2.34 0 0 0-.058-.801l-1.475-5.492c-.406-1.498-2.218-2.09-3.425-1.126l-.012-.012zm8.141 6.801 15.675-2.113a2.159 2.159 0 0 1 2.415 1.811l2.217 14.41a2.148 2.148 0 0 1-1.962 2.472l-20.04 1.591c-1.382.116-2.52-1.103-2.299-2.473l2.136-13.887a2.168 2.168 0 0 1 1.846-1.811h.012zm-2.974 20.715 24.847-3.693a2.558 2.558 0 0 1 2.566 1.22l2.903 4.911c.174.29.279.604.325.929l.871 5.898a2.555 2.555 0 0 1-2.055 2.88l-28.017 5.248a2.545 2.545 0 0 1-3.019-2.38l-.604-12.366a2.535 2.535 0 0 1 2.171-2.647h.012zm34.459 2.126 17.95-2.926a2.555 2.555 0 0 1 2.961 2.31l.825 10.183c.127 1.626-1.278 2.961-2.891 2.74l-17.905-2.484a2.551 2.551 0 0 1-2.159-2.067l-.871-4.772a2.557 2.557 0 0 1 2.102-2.984h-.012zm24.151-3.969 2.381-.662a2.579 2.579 0 0 1 1.567.069l12.911 4.784a2.537 2.537 0 0 1 1.614 2.88l-2.275 11.796a2.543 2.543 0 0 1-3.135 1.986l-11.135-2.833a2.548 2.548 0 0 1-1.893-2.113l-1.881-13.097a2.545 2.545 0 0 1 1.846-2.822v.012zm18.798 12.259-1.288 8.313a2.564 2.564 0 0 0 1.521 2.741l3.437 1.463c1.753.743 3.669-.616 3.552-2.52l-.51-7.872a2.635 2.635 0 0 0-.604-1.498l-1.626-1.904c-1.416-1.661-4.122-.883-4.458 1.265l-.024.012zm-12.839 8.741 17.892 5.783a2.552 2.552 0 0 1 1.649 3.216l-4.772 14.734a2.546 2.546 0 0 1-3.147 1.66c-5.201-1.532-17.149-5.05-17.149-5.248 0-.197 1.498-12.238 2.218-18.031a2.554 2.554 0 0 1 3.32-2.114h-.011zm-29.679-5.702 21.886 4.307a2.559 2.559 0 0 1 2.055 2.729l-1.37 15.326a2.567 2.567 0 0 1-3.076 2.276l-20.865-4.412a2.547 2.547 0 0 1-1.974-1.997l-2.949-14.781a2.55 2.55 0 0 1 2.159-3.03l3.298-.442c.278-.034.557-.023.836.024zm-8.313 3.791 2.612 13.399a2.558 2.558 0 0 1-1.567 2.868l-14.479 5.747a2.541 2.541 0 0 1-3.344-1.521l-5.597-15.756a2.544 2.544 0 0 1 1.916-3.356l17.463-3.378a2.566 2.566 0 0 1 2.996 2.02v-.023zm-25.067 4.305 7.083 16.22a2.547 2.547 0 0 1-1.416 3.402l-12.633 4.889a2.578 2.578 0 0 1-3.089-1.022l-4.052-6.467a2.544 2.544 0 0 1-.023-2.671l8.592-14.351a2.531 2.531 0 0 1 1.475-1.138l.998-.29a2.555 2.555 0 0 1 3.054 1.428h.011zm32.182 17.763.708 17.207a2.465 2.465 0 0 0 2.067 2.334l12.761 2.113a2.463 2.463 0 0 0 2.867-2.508l-.476-17.137a2.468 2.468 0 0 0-2.055-2.369l-12.992-2.183a2.474 2.474 0 0 0-2.88 2.531v.012zm20.621 4.178v16.453c0 .929.523 1.788 1.359 2.206l10.38 5.213a2.46 2.46 0 0 0 3.379-1.254l6.99-16.708c.568-1.358-.175-2.926-1.603-3.32l-17.37-4.958a2.464 2.464 0 0 0-3.146 2.368h.011zm-38.036 12.33 13.423-6.56c1.59-.778 3.46.325 3.553 2.09l.778 15.315a2.454 2.454 0 0 1-1.684 2.461l-13.457 4.529a2.466 2.466 0 0 1-3.251-2.206l-.743-13.283a2.472 2.472 0 0 1 1.381-2.357v.011zm-21.514 6.39 15.745-4.064a2.46 2.46 0 0 1 3.076 2.508l-.801 16.522a2.467 2.467 0 0 1-2.217 2.334l-16.256 1.602a2.473 2.473 0 0 1-2.705-2.682l1.312-14.061a2.465 2.465 0 0 1 1.834-2.159h.012zm44.111-1.183 13.817 2.078c.337.047.639.163.929.337 1.498.929 6.7 4.134 10.032 6.189 1.498.917 1.765 2.984.557 4.261l-11.913 12.656c-1.567 1.66-4.214 1.637-5.735-.07-3.1-3.483-7.884-8.836-9.568-10.693a2.46 2.46 0 0 1-.638-1.58l-.314-10.67a2.473 2.473 0 0 1 2.833-2.52v.012zm-8.58 10.976a2.473 2.473 0 0 1 2.705.696c2.532 2.891 8.709 10.079 12.691 14.723a4.894 4.894 0 0 1-1.01 7.28 10749.77 10749.77 0 0 0-17.951 11.925c-1.346.905-3.181.278-3.703-1.266l-8.488-25.057a2.47 2.47 0 0 1 1.498-3.111l14.27-5.202-.012.012zm-38.061 10.492 18.427-1.579a2.458 2.458 0 0 1 2.624 1.962l1.742 8.43a2.462 2.462 0 0 1-1.812 2.891c-5.155 1.277-17.625 4.191-24.452 5.782-2.021.465-3.762-1.475-3.066-3.437 1.452-4.064 3.484-9.776 4.424-12.412a2.45 2.45 0 0 1 2.113-1.625v-.012zm-10.869 20.096 14.2-2.764a2.466 2.466 0 0 1 2.915 2.102c.487 3.611.894 10.159 1.126 14.293a4.447 4.447 0 0 1-3.414 4.574c-5.341 1.278-15.094 3.611-18.252 4.424a2.418 2.418 0 0 1-2.044-.383c-1.219-.871-3.355-2.496-5.178-3.901a3.937 3.937 0 0 1-.627-5.69c3.146-3.773 8.197-9.811 9.846-11.796.36-.441.859-.732 1.417-.836l.011-.023zm20.456-4.119 12.854-3.53a2.458 2.458 0 0 1 2.949 1.475l4.505 11.471a2.47 2.47 0 0 1-1.289 3.158l-15.791 7.037a2.466 2.466 0 0 1-3.46-1.998l-1.567-14.966a2.467 2.467 0 0 1 1.799-2.636v-.011zM699.295 32.212l-4.772 10.566a2.588 2.588 0 0 0-.035 2.078l5.887 14.328a2.632 2.632 0 0 0 2.519 1.625l13.202-.44a2.623 2.623 0 0 0 2.531-2.834l-2.195-28.412c-.127-1.695-1.811-2.821-3.436-2.299l-12.122 3.948a2.614 2.614 0 0 0-1.579 1.416v.024zm-3.464 20.935 2.671 7.152a2.625 2.625 0 0 1-1.637 3.413l-5.248 1.73c-2.009.662-3.936-1.195-3.344-3.227l2.577-8.883c.709-2.426 4.099-2.554 4.981-.185zm22.56-25.382 1.997 19.657a2.626 2.626 0 0 0 3.054 2.323l18.473-3.124a2.631 2.631 0 0 0 2.148-3.065l-3.681-20.18a2.635 2.635 0 0 0-3.146-2.101l-16.79 3.657a2.619 2.619 0 0 0-2.055 2.833zm25.009-3.887 2.45 20.017a2.626 2.626 0 0 0 2.671 2.31l16.371-.406a2.63 2.63 0 0 0 2.554-2.891l-1.857-18.392a2.621 2.621 0 0 0-2.427-2.357l-16.964-1.219a2.633 2.633 0 0 0-2.798 2.938zm24.649 3.552 1.521 17.568a2.624 2.624 0 0 0 2.682 2.403c5.167-.128 16.65-.406 16.836-.36.186.047.081-11.216.023-15.918a2.632 2.632 0 0 0-1.985-2.52l-15.814-3.96a2.619 2.619 0 0 0-3.252 2.776l-.011.011zm23.013 6.428v16.661a2.62 2.62 0 0 0 2.683 2.625l17.474-.337a2.627 2.627 0 0 0 2.473-3.356l-2.763-9.66a2.646 2.646 0 0 0-1.44-1.672l-14.711-6.665c-1.742-.79-3.716.488-3.716 2.392v.012zm.574 20.558h20.238c1.254 0 2.334.882 2.578 2.113l.673 3.333a2.64 2.64 0 0 1-.336 1.892c-1.696 2.752-6.804 11.007-6.932 10.81-.128-.197-13.434-9.695-17.869-12.865a2.627 2.627 0 0 1-1.034-2.729l.116-.522a2.624 2.624 0 0 1 2.566-2.032zm-1.209 7.469 14.525 10.658a2.623 2.623 0 0 1 .046 4.204L794.2 85.025a2.644 2.644 0 0 1-3.727-.534l-9.405-12.911a2.649 2.649 0 0 1 .209-3.356l5.678-6.026a2.63 2.63 0 0 1 3.472-.313zm-2.099-10.735-.592 7.407a2.61 2.61 0 0 1-1.138 1.962l-12.935 8.883c-1.753 1.207-4.145-.07-4.11-2.206l.209-16.29a2.631 2.631 0 0 1 2.624-2.601h13.318a2.636 2.636 0 0 1 2.624 2.833v.011zm-8.944 19.83 8.882 14.014a2.637 2.637 0 0 1-.952 3.716l-12.122 6.63c-1.544.847-3.483-.047-3.831-1.777l-3.286-15.849a2.617 2.617 0 0 1 1.01-2.647l6.514-4.807a2.618 2.618 0 0 1 3.773.708l.012.012zm-12.805 1.984 3.413 21.085a2.628 2.628 0 0 1-2.124 3.008l-16.639 3.019a2.635 2.635 0 0 1-3.1-2.59V76.401c0-1.23.848-2.287 2.043-2.566l13.225-3.019a2.638 2.638 0 0 1 3.182 2.148zm-20.19-25.207 18.287-.639a2.633 2.633 0 0 1 2.717 2.578l.29 16.36a2.627 2.627 0 0 1-1.974 2.59l-16.336 4.19a2.624 2.624 0 0 1-3.263-2.252l-2.241-19.913a2.633 2.633 0 0 1 2.52-2.925v.011zm-24.501 3.913 17.834-2.45c1.498-.208 2.856.895 2.984 2.404l1.649 21.237a2.632 2.632 0 0 1-2.253 2.81l-18.624 2.67a2.622 2.622 0 0 1-2.995-2.496l-.859-21.457a2.626 2.626 0 0 1 2.264-2.706v-.011zm1.148 28.437 20.017-2.647c1.533-.21 2.914.963 2.972 2.508l.709 18.589a2.624 2.624 0 0 1-2.45 2.717l-19.542 1.323c-1.451.093-2.705-.998-2.798-2.438l-1.184-17.265a2.638 2.638 0 0 1 2.276-2.787zm-32.209-12.421 10.287-4.61c.325-.15.674-.22 1.034-.232l14.026-.232a2.631 2.631 0 0 1 2.67 2.624v23.907c0 1.3-.94 2.403-2.229 2.6l-18.473 2.88a2.639 2.639 0 0 1-2.949-1.927l-5.841-21.945a2.635 2.635 0 0 1 1.463-3.077l.012.012zm-3.613 2.956 4.053 13.898c.452 1.556-.604 3.158-2.206 3.344l-19.054 2.288c-1.869.22-3.367-1.533-2.833-3.344l2.566-8.767a2.613 2.613 0 0 1 1.173-1.52l12.435-7.42a2.625 2.625 0 0 1 3.866 1.521zm-18.031 21.179 21.805-2.45a2.63 2.63 0 0 1 2.81 1.858l1.8 5.957c.081.267.116.545.116.836l-.302 10.891a2.619 2.619 0 0 1-2.427 2.543l-15.14 1.184a2.621 2.621 0 0 1-2.532-1.405l-8.162-15.582c-.859-1.637.197-3.623 2.032-3.832zm30.563 3.985 16.94-1.87a2.635 2.635 0 0 1 2.915 2.544l.417 15.384a2.63 2.63 0 0 1-1.195 2.276l-5.527 3.588a2.65 2.65 0 0 1-2.462.22l-11.831-5.027a2.632 2.632 0 0 1-1.603-2.415V98.43a2.637 2.637 0 0 1 2.346-2.612v-.012zm-13.808 18.983 9.44-1.869a2.33 2.33 0 0 1 1.532.22l13.097 6.746a2.36 2.36 0 0 1 1.277 2.102v14.351a2.352 2.352 0 0 1-2.287 2.357l-24.383.732a2.348 2.348 0 0 1-2.415-2.578l1.858-19.959a2.369 2.369 0 0 1 1.892-2.102h-.011zm27.971 5.585 7.455-5.573a2.328 2.328 0 0 1 1.509-.465l17.718.708a2.377 2.377 0 0 1 2.264 2.52l-1.416 20.981a2.364 2.364 0 0 1-2.682 2.183l-23.756-3.333a2.362 2.362 0 0 1-2.032-2.333v-12.784c0-.743.348-1.44.952-1.893l-.012-.011zm-13.165 20.008 18.044-.615a2.363 2.363 0 0 1 2.427 2.601l-2.148 20.493a2.36 2.36 0 0 1-2.555 2.102l-17.196-1.498a2.365 2.365 0 0 1-2.148-2.52l1.289-18.368a2.363 2.363 0 0 1 2.276-2.195h.011zm-20.067 1.619 13.98-1.103a2.36 2.36 0 0 1 2.543 2.52l-1.347 18.485a2.346 2.346 0 0 1-1.823 2.124l-19.588 4.54c-1.776.418-3.332-1.265-2.786-3.018l6.966-21.922a2.345 2.345 0 0 1 2.067-1.637l-.012.011zm45.065-1.217 14.131 2.322a2.37 2.37 0 0 1 1.939 2.763l-4.54 24.256a2.352 2.352 0 0 1-3.135 1.776l-11.831-4.354a2.366 2.366 0 0 1-1.533-2.45l2.241-22.223a2.358 2.358 0 0 1 2.728-2.09zm-12.354 25.663 20.435 7.187c1.301.453 1.928 1.916 1.382 3.182l-6.456 14.653a2.357 2.357 0 0 1-2.577 1.37l-21.446-3.878c-1.486-.267-2.333-1.835-1.765-3.228l7.478-17.962c.476-1.161 1.776-1.73 2.961-1.324h-.012zm-23.848.488 6.967-2.346a2.28 2.28 0 0 1 1.045-.104l8.731 1.103c1.509.186 2.45 1.753 1.916 3.181l-7.025 18.589a2.39 2.39 0 0 1-1.904 1.51l-7.942 1.022a2.363 2.363 0 0 1-2.659-2.241l-.743-18.357a2.37 2.37 0 0 1 1.602-2.334l.012-.023zm-20.31 4.838 14.607-3.344c1.428-.325 2.81.708 2.88 2.171l1.056 19.936a2.357 2.357 0 0 1-1.602 2.357l-15.965 5.376a2.355 2.355 0 0 1-3.112-2.264l.314-21.968a2.355 2.355 0 0 1 1.834-2.264h-.012zm25.696 19.077 5.921-.627c.244-.023.488-.012.72.023l22.793 4.157c1.753.313 2.635 2.287 1.706 3.808l-10.74 17.614a2.543 2.543 0 0 1-2.647 1.173c-3.994-.79-13.538-2.717-13.596-3.019-.058-.302-4.355-13.736-6.305-19.843a2.524 2.524 0 0 1 2.148-3.286zm-5.165 4.599 7.222 16.952a2.537 2.537 0 0 1-.871 3.065l-13.979 9.834a2.536 2.536 0 0 1-3.693-.882l-10.531-19.773c-.708-1.324-.104-2.973 1.289-3.542l17.289-7.013a2.534 2.534 0 0 1 3.286 1.359h-.012zm-1.292 28.132 9.498-7.606c.604-.487 1.405-.661 2.16-.487l9.706 2.264c1.905.441 2.601 2.775 1.266 4.203l-8.197 8.731a2.514 2.514 0 0 1-2.59.686l-11.007-3.391c-1.939-.604-2.426-3.123-.836-4.4z"/></svg>