<?xml version="1.0" encoding="UTF-8"?>
<svg width="748px" height="139px" viewBox="0 0 748 139" version="1.1" xmlns="http://www.w3.org/2000/svg" xmlns:xlink="http://www.w3.org/1999/xlink">
    <title>Artboard</title>
    <g id="Artboard" stroke="none" stroke-width="1" fill="none" fill-rule="evenodd">
        <path d="M99.5,139 C128.9,139 148.3,121.8 148.3,95.8 C148.3,80.4 142.3,69.6 129.3,62.4 C136.5,55.8 140.3,46.2 140.3,35.2 C140.3,13.4 120.7,-0.4 89.5,-0.4 L-0.3,-0.4 L-0.3,139 L99.5,139 Z M49.7,33.6 L80.3,33.6 C86.5,33.6 89.9,37 89.9,42.2 C89.9,48.6 86.5,52.4 79.7,52.4 L49.7,52.4 L49.7,33.6 Z M49.7,83.6 L86.3,83.6 C94.3,83.6 98.3,86.6 98.3,92.8 C98.3,100.2 94.5,104.2 87.1,104.2 L49.7,104.2 L49.7,83.6 Z" id="Shape" fill="#EC4B28" fill-rule="nonzero"></path>
        <path d="M220.375559,139 C234.459016,139 234.853283,118.689168 248.542474,108.905277 C265.557257,96.7445317 283,93.1301662 283,69.782138 C283,27.0852503 272.484352,0 220.09389,0 C168.266766,0 157,27.6495264 157,69.782138 C157,89.2755749 180.164065,96.9596763 192.208644,108.905277 C206.196907,122.77859 206.292101,139 220.375559,139 Z M220.782609,92 C207.210296,92 207.077655,84.1188166 201.282609,77.2432432 C196.861181,71.9974089 188,69.0278462 188,60.5945946 C188,41.1081081 196.855072,29 220.782609,29 C244.710145,29 253,41.2972973 253,60.5945946 C253,71.7632132 247.839604,71.8238288 239.905797,77.2432432 C234.265854,81.0957684 230.724588,92 220.782609,92 Z" id="Shape" fill="#EC4B28" fill-rule="nonzero"></path>
        <path d="M418.1,89 C433.1,82.4 443.1,69.8 443.1,46.6 C443.1,6 411.5,-0.4 377.9,-0.4 L298.7,-0.4 L298.7,139 L347.9,139 L347.9,95.4 L369.9,95.4 L394.1,139 L449.3,139 L418.1,89 Z M375.7,35.6 C381.5,35.6 393.3,35 393.3,47 C393.3,59.8 381.3,59.2 375.7,59.2 L347.9,59.2 L347.9,35.6 L375.7,35.6 Z" id="Shape" fill="#EC4B28" fill-rule="nonzero"></path>
        <polygon id="Path" fill="#EC4B28" fill-rule="nonzero" points="575.9 139 575.9 103 507.3 103 507.3 87 573.7 87 573.7 50.6 507.3 50.6 507.3 35.6 575.9 35.6 575.9 -0.4 457.9 -0.4 457.9 139"></polygon>
        <path d="M668.9,139 C719.7,139 747.7,114.8 747.7,70.4 C747.7,25.2 718.5,-0.4 669.5,-0.4 L591.5,-0.4 L591.5,139 L668.9,139 Z M641.5,40 L663.1,40 C672.7,40 697.5,39.4 697.5,69 C697.5,102.4 666.9,98.6 659.3,98.6 L641.5,98.6 L641.5,40 Z" id="Shape" fill="#EC4B28" fill-rule="nonzero"></path>
    </g>
</svg>