<?xml version="1.0" encoding="UTF-8"?>
<svg width="728px" height="139px" viewBox="0 0 728 139" version="1.1" xmlns="http://www.w3.org/2000/svg" xmlns:xlink="http://www.w3.org/1999/xlink">
    <title>Artboard</title>
    <g id="Artboard" stroke="none" stroke-width="1" fill="none" fill-rule="evenodd">
        <path d="M99.5,139 C128.9,139 148.3,121.8 148.3,95.8 C148.3,80.4 142.3,69.6 129.3,62.4 C136.5,55.8 140.3,46.2 140.3,35.2 C140.3,13.4 120.7,-0.4 89.5,-0.4 L-0.3,-0.4 L-0.3,139 L99.5,139 Z M49.7,33.6 L80.3,33.6 C86.5,33.6 89.9,37 89.9,42.2 C89.9,48.6 86.5,52.4 79.7,52.4 L49.7,52.4 L49.7,33.6 Z M49.7,83.6 L86.3,83.6 C94.3,83.6 98.3,86.6 98.3,92.8 C98.3,100.2 94.5,104.2 87.1,104.2 L49.7,104.2 L49.7,83.6 Z" id="Shape" fill="#EC4B28" fill-rule="nonzero"></path>
        <g id="bw-boredmap-logo-_1_" transform="translate(155, 0)" fill="#EC4B28" fill-rule="nonzero">
            <g id="Group" transform="translate(54.849, 69.5) scale(-1, 1) rotate(-180) translate(-54.849, -69.5)translate(0, -0)">
                <path d="M52.4656765,138.896663 C38.4826828,138.307904 25.3933391,132.45186 15.59473,122.411424 C11.3367507,118.048302 8.20371906,113.6221 5.52276914,108.155056 C2.53692688,102.067713 0.875789288,96.1380738 0.139842252,88.9152681 C-0.0704283296,86.812559 -0.0388877423,80.8513787 0.202923427,78.6119936 C0.697059294,73.9229523 1.79046632,69.1498027 3.31492804,65.04952 C5.33352562,59.6350441 9.43380196,51.4239651 12.9663477,45.7045964 C21.3981981,32.0895551 32.8999989,18.8635149 47.1037767,6.4259907 C49.195969,4.60714735 54.4947876,0.159917635 54.7576258,0.0010903255 C54.8943017,-0.0713803646 59.2153622,3.48219799 62.8425297,6.66780225 C72.7567876,15.3519908 81.924585,25.0770203 88.779406,34.1817506 C93.8889811,40.9629874 97.5056351,46.6192748 101.069721,53.3794845 C102.783427,56.6281701 103.918888,59.0883397 105.664134,63.2832443 C107.567082,67.8566366 108.818192,72.7664623 109.459518,78.2440195 C109.690815,80.1785118 109.774924,85.7296638 109.617221,87.9375083 C108.902301,97.7466462 105.716701,106.924971 100.228639,114.95732 C91.2185447,128.162333 76.9411722,136.793954 61.139338,138.59177 C59.6779575,138.759987 54.641977,139.054366 54.4106794,138.991285 C54.3791388,138.991285 53.5065159,138.938717 52.4656765,138.896663 Z M58.7422534,124.556187 C62.7584215,124.177699 66.206859,123.347129 69.8655671,121.906774 C78.6338504,118.437304 85.9092125,112.118663 90.5667059,103.928611 C91.8493565,101.668199 93.3948452,98.1041068 94.0887382,95.7806132 C94.7510905,93.5832822 95.3188211,90.7971927 95.6447405,88.1267522 C95.855011,86.3815036 95.8234705,80.6516214 95.5921728,78.8222645 C94.5723605,70.9371054 91.7021671,64.1663821 86.7292678,57.9003091 C85.541239,56.4178992 82.1348556,53.0009969 80.652448,51.8234798 C79.1700404,50.6459627 77.571984,49.5315269 76.0685493,48.6168485 C74.8174393,47.8598732 72.3783006,46.5667071 72.3152194,46.6297884 C72.3047059,46.6508155 72.2416247,46.8821135 72.1890571,47.1344386 C72.1364894,47.3867637 71.9472459,48.3540098 71.7580024,49.2792018 C71.0535959,52.8117531 70.895893,53.4951335 70.5804871,54.4518662 C70.2230271,55.5242478 69.8340266,56.1971147 69.1821878,56.8489545 C68.8457548,57.185388 68.4672678,57.3851454 67.2371849,57.8687684 C66.3961025,58.1946884 65.2185873,58.6047166 64.6088026,58.7939604 C63.9990179,58.9832043 63.1579356,59.26707 62.747908,59.4458003 C62.0750421,59.7191524 61.9278527,59.8348014 61.5073115,60.4025329 C60.7923915,61.3697791 60.6662292,61.4854281 60.0143904,61.7377532 C59.2258757,62.0531595 59.1207404,62.1477814 58.6791722,62.9993786 C57.9747657,64.3451124 57.5647381,66.0062526 57.5647381,67.5517438 C57.5647381,68.172043 57.6067922,68.5715577 57.6909005,68.655666 C57.8170628,68.7818286 58.5319828,68.8343963 58.6476316,68.7187473 C58.6791722,68.6872067 59.6253898,68.6451525 60.7398239,68.634639 C61.854258,68.6136119 63.7361797,68.5715577 64.9242085,68.51899 C66.6589408,68.4559087 67.3423202,68.4769358 68.4567542,68.6136119 C70.7907577,68.8974776 72.16803,69.3600736 72.7462741,70.043454 C73.0301394,70.390401 73.06168,70.5375907 73.0301394,71.2735389 C73.0091123,71.6309994 73.0406529,71.7256213 73.2509235,71.8412703 C73.7345458,72.0935954 73.7871135,72.472083 73.3875994,72.8821113 C73.1247612,73.1554635 73.1247612,73.165977 73.2824641,73.6180595 C73.3770859,73.8703846 73.4822211,74.1121961 73.5347888,74.1437368 C73.5768429,74.1752774 73.6714647,74.4801702 73.7555729,74.8271172 C74.155087,76.6985283 74.0814923,77.907586 73.4611941,79.9787545 C72.8934635,81.8501655 72.7567876,82.2181396 72.0628947,83.6059276 L71.4636236,84.8149854 L71.3479747,86.6233152 C71.2007853,88.9888629 71.1797583,88.8206462 71.5582453,88.9678358 C72.2731653,89.2727286 73.1773288,89.9666226 74.5230605,91.2492751 C75.2905481,91.9852233 76.2998469,92.9209289 76.7519287,93.3309571 C78.8336075,95.1708276 79.9480415,97.5468889 79.9585551,100.122707 C79.9585551,101.331765 79.8008521,102.120281 79.380311,103.013932 C78.9702833,103.86553 78.3920392,104.454288 77.7822545,104.633018 C76.1316305,105.116642 74.0184111,104.622505 72.6095982,103.423961 C72.3047059,103.161122 72.0313541,102.961365 72.0103271,102.982392 C71.9893,103.003419 72.1154624,103.581664 72.2836788,104.265044 C72.4518953,104.958938 72.6201118,105.85259 72.6621659,106.262618 L72.7252471,106.998566 L72.147003,107.681947 C71.5477318,108.396868 69.8655671,110.793956 69.8655671,110.920119 C69.8655671,110.962173 70.0653242,111.16193 70.3176489,111.351174 L70.7592171,111.698121 L70.338676,111.624526 C70.1073783,111.592986 69.802486,111.529904 69.6552966,111.508877 C69.4134854,111.456309 69.4239989,111.477337 69.7604319,111.761202 C69.9601889,111.939933 70.1073783,112.108149 70.0758377,112.129176 C70.0442971,112.160717 69.3188636,112.003014 68.4462407,111.771716 C67.5841313,111.550931 66.8586978,111.393228 66.8271572,111.414255 C66.8061302,111.445796 66.8586978,111.529904 66.9428061,111.603499 C67.0374278,111.66658 67.4474555,111.9925 67.8574831,112.307907 C68.5093219,112.812557 68.7826736,113.14899 68.5198354,113.14899 C68.4252137,113.14899 67.0794819,112.581259 66.1753184,112.171231 C64.7244514,111.498364 63.8938826,111.34066 61.3496086,111.256552 C59.4676869,111.182957 58.7107128,111.109362 57.6488463,110.899092 C53.7062729,110.100062 48.9226172,107.51373 44.6541244,103.876043 C44.1179344,103.413447 43.6343121,103.055987 43.5817444,103.077014 C43.5291768,103.098041 43.3609603,103.287285 43.1927439,103.497556 C41.5000657,105.715914 41.4159574,105.800022 40.3015234,106.315186 C39.439414,106.7147 38.4406287,106.872404 37.5469787,106.746241 C36.5271664,106.599051 35.7912194,106.220564 35.0027047,105.432048 C34.3613794,104.790722 34.2247035,104.559424 33.0682153,102.172849 C31.2388613,98.4300267 31.1021854,97.93589 31.4386183,96.2432092 C31.7960783,94.4769336 32.6056201,92.5003871 33.6044053,90.9023282 C33.85673,90.513327 33.9934059,90.1874071 33.9513518,90.0822716 C33.9092977,89.9666226 33.9408383,89.9140549 34.0564871,89.9140549 C34.1511088,89.9140549 34.2247035,89.8720007 34.2247035,89.819433 C34.2247035,89.703784 35.7176247,88.8627003 36.0435441,88.7996191 C37.1264376,88.5788346 38.6508993,88.4421585 40.2174151,88.4526721 C42.2360127,88.4526721 43.4766091,88.6103752 44.0548532,88.9573222 C44.3176915,89.1045119 44.4228268,89.1360525 44.4228268,89.0309171 C44.4228268,88.8416732 44.1284479,86.9176944 43.9497179,85.8978805 C43.4976362,83.4061703 43.1506897,81.2298664 43.0035003,79.9472138 C42.9193921,79.1481844 42.7932297,78.138884 42.7301486,77.6868016 C42.6144998,76.8982857 42.6460403,76.6249335 42.8352839,76.8352044 C42.8878515,76.8877721 43.077095,77.4555036 43.2663386,78.0863163 C43.4450686,78.7276426 43.6343121,79.2848605 43.6868797,79.3374282 C43.7815015,79.4320501 43.8130421,79.3584553 44.1179344,78.0337486 C44.3387185,77.0770159 44.3492321,76.8982857 44.2756373,73.8808981 C44.149475,68.0984481 43.8761232,66.4267944 42.6460403,63.9455977 C42.0572827,62.7470535 41.7944445,62.4316472 41.3739033,62.4316472 C41.0795245,62.4211336 40.9743892,62.3580523 40.7956592,62.0741866 C39.975604,60.7389663 40.0071445,60.7599934 38.924251,60.2343162 C37.9464928,59.7612066 34.3403524,58.3734186 32.7002418,57.8477414 C30.5659954,57.1538474 28.7471549,55.7765729 27.7904237,54.1364598 C27.5591261,53.715918 27.338342,53.3584575 27.3173149,53.3374304 C27.2542338,53.253322 25.2461497,55.2719227 24.0896615,56.5861159 C19.4847358,61.8008344 16.1414335,68.3928274 14.7326206,75.0373881 C12.1042384,87.5169665 15.2267565,100.238356 23.3116604,109.963386 C24.6048244,111.529904 27.5275855,114.421129 28.967939,115.577619 C33.8146759,119.457118 39.1555487,122.117045 44.9695303,123.546887 C47.1668578,124.093591 48.7754278,124.345916 51.7822971,124.640295 C52.8757041,124.755944 57.2808728,124.692863 58.7422534,124.556187 Z" id="Shape"></path>
            </g>
        </g>
        <path d="M398.1,89 C413.1,82.4 423.1,69.8 423.1,46.6 C423.1,6 391.5,-0.4 357.9,-0.4 L278.7,-0.4 L278.7,139 L327.9,139 L327.9,95.4 L349.9,95.4 L374.1,139 L429.3,139 L398.1,89 Z M355.7,35.6 C361.5,35.6 373.3,35 373.3,47 C373.3,59.8 361.3,59.2 355.7,59.2 L327.9,59.2 L327.9,35.6 L355.7,35.6 Z" id="Shape" fill="#EC4B28" fill-rule="nonzero"></path>
        <polygon id="Path" fill="#EC4B28" fill-rule="nonzero" points="555.9 139 555.9 103 487.3 103 487.3 87 553.7 87 553.7 50.6 487.3 50.6 487.3 35.6 555.9 35.6 555.9 -0.4 437.9 -0.4 437.9 139"></polygon>
        <path d="M648.9,139 C699.7,139 727.7,114.8 727.7,70.4 C727.7,25.2 698.5,-0.4 649.5,-0.4 L571.5,-0.4 L571.5,139 L648.9,139 Z M621.5,40 L643.1,40 C652.7,40 677.5,39.4 677.5,69 C677.5,102.4 646.9,98.6 639.3,98.6 L621.5,98.6 L621.5,40 Z" id="Shape" fill="#EC4B28" fill-rule="nonzero"></path>
    </g>
</svg>