<?xml version="1.0" encoding="UTF-8"?>
<svg width="126px" height="139px" viewBox="0 0 126 139" version="1.1" xmlns="http://www.w3.org/2000/svg" xmlns:xlink="http://www.w3.org/1999/xlink">
    <title>Shape</title>
    <g id="Page-1" stroke="none" stroke-width="1" fill="none" fill-rule="evenodd">
        <g id="Artboard" transform="translate(-157, 0)" fill="#EC4B28" fill-rule="nonzero">
            <path d="M220.375559,139 C234.459016,139 234.853283,118.689168 248.542474,108.905277 C265.557257,96.7445317 283,93.1301662 283,69.782138 C283,27.0852503 272.484352,0 220.09389,0 C168.266766,0 157,27.6495264 157,69.782138 C157,89.2755749 180.164065,96.9596763 192.208644,108.905277 C206.196907,122.77859 206.292101,139 220.375559,139 Z M220.782609,92 C207.210296,92 207.077655,84.1188166 201.282609,77.2432432 C196.861181,71.9974089 188,69.0278462 188,60.5945946 C188,41.1081081 196.855072,29 220.782609,29 C244.710145,29 253,41.2972973 253,60.5945946 C253,71.7632132 247.839604,71.8238288 239.905797,77.2432432 C234.265854,81.0957684 230.724588,92 220.782609,92 Z" id="Shape"></path>
        </g>
    </g>
</svg>