<?xml version="1.0" encoding="UTF-8"?>
<svg width="1044px" height="1323px" viewBox="0 0 1044 1323" version="1.1" xmlns="http://www.w3.org/2000/svg" xmlns:xlink="http://www.w3.org/1999/xlink">
    <title>pin</title>
    <g id="Page-1" stroke="none" stroke-width="1" fill="none" fill-rule="evenodd">
        <g id="pin" transform="translate(0.4699, 0.1171)" fill="#EC4B28" fill-rule="nonzero">
            <g id="Group" transform="translate(521.6992, 661.052) scale(-1, 1) rotate(-180) translate(-521.6992, -661.052)translate(0, 0)">
                <path d="M499.030117,1321.12106 C366.030117,1315.52106 241.530117,1259.82106 148.330117,1164.32106 C107.830117,1122.82106 78.0301171,1080.72106 52.5301171,1028.72106 C24.1301171,970.821063 8.33011714,914.421063 1.33011714,845.721063 C-0.669882862,825.721063 -0.369882862,769.021063 1.93011714,747.721063 C6.63011714,703.121063 17.0301171,657.721063 31.5301171,618.721063 C50.7301171,567.221063 89.7301171,489.121063 123.330117,434.721063 C203.530117,305.221063 312.930117,179.421063 448.030117,61.1210629 C467.930117,43.8210629 518.330117,1.52106286 520.830117,0.0103706738 C522.130117,-0.67893714 563.230117,33.1210629 597.730117,63.4210629 C692.030117,146.021063 779.230117,238.521063 844.430117,325.121063 C893.030117,389.621063 927.430117,443.421063 961.330117,507.721063 C977.630117,538.621063 988.430117,562.021063 1005.03012,601.921063 C1023.13012,645.421063 1035.03012,692.121063 1041.13012,744.221063 C1043.33012,762.621063 1044.13012,815.421063 1042.63012,836.421063 C1035.83012,929.721063 1005.53012,1017.02106 953.330117,1093.42106 C867.630117,1219.02106 731.830117,1301.12106 581.530117,1318.22106 C567.630117,1319.82106 519.730117,1322.62106 517.530117,1322.02106 C517.230117,1322.02106 508.930117,1321.52106 499.030117,1321.12106 Z M558.730117,1184.72106 C596.930117,1181.12106 629.730117,1173.22106 664.530117,1159.52106 C747.930117,1126.52106 817.130117,1066.42106 861.430117,988.521063 C873.630117,967.021063 888.330117,933.121063 894.930117,911.021063 C901.230117,890.121063 906.630117,863.621063 909.730117,838.221063 C911.730117,821.621063 911.430117,767.121063 909.230117,749.721063 C899.530117,674.721063 872.230117,610.321063 824.930117,550.721063 C813.630117,536.621063 781.230117,504.121063 767.130117,492.921063 C753.030117,481.721063 737.830117,471.121063 723.530117,462.421063 C711.630117,455.221063 688.430117,442.921063 687.830117,443.521063 C687.730117,443.721063 687.130117,445.921063 686.630117,448.321063 C686.130117,450.721063 684.330117,459.921063 682.530117,468.721063 C675.830117,502.321063 674.330117,508.821063 671.330117,517.921063 C667.930117,528.121063 664.230117,534.521063 658.030117,540.721063 C654.830117,543.921063 651.230117,545.821063 639.530117,550.421063 C631.530117,553.521063 620.330117,557.421063 614.530117,559.221063 C608.730117,561.021063 600.730117,563.721063 596.830117,565.421063 C590.430117,568.021063 589.030117,569.121063 585.030117,574.521063 C578.230117,583.721063 577.030117,584.821063 570.830117,587.221063 C563.330117,590.221063 562.330117,591.121063 558.130117,599.221063 C551.430117,612.021063 547.530117,627.821063 547.530117,642.521063 C547.530117,648.421063 547.930117,652.221063 548.730117,653.021063 C549.930117,654.221063 556.730117,654.721063 557.830117,653.621063 C558.130117,653.321063 567.130117,652.921063 577.730117,652.821063 C588.330117,652.621063 606.230117,652.221063 617.530117,651.721063 C634.030117,651.121063 640.530117,651.321063 651.130117,652.621063 C673.330117,655.321063 686.430117,659.721063 691.930117,666.221063 C694.630117,669.521063 694.930117,670.921063 694.630117,677.921063 C694.430117,681.321063 694.730117,682.221063 696.730117,683.321063 C701.330117,685.721063 701.830117,689.321063 698.030117,693.221063 C695.530117,695.821063 695.530117,695.921063 697.030117,700.221063 C697.930117,702.621063 698.930117,704.921063 699.430117,705.221063 C699.830117,705.521063 700.730117,708.421063 701.530117,711.721063 C705.330117,729.521063 704.630117,741.021063 698.730117,760.721063 C693.330117,778.521063 692.030117,782.021063 685.430117,795.221063 L679.730117,806.721063 L678.630117,823.921063 C677.230117,846.421063 677.030117,844.821063 680.630117,846.221063 C687.430117,849.121063 696.030117,855.721063 708.830117,867.921063 C716.130117,874.921063 725.730117,883.821063 730.030117,887.721063 C749.830117,905.221063 760.430117,927.821063 760.530117,952.321063 C760.530117,963.821063 759.030117,971.321063 755.030117,979.821063 C751.130117,987.921063 745.630117,993.521063 739.830117,995.221063 C724.130117,999.821063 704.030117,995.121063 690.630117,983.721063 C687.730117,981.221063 685.130117,979.321063 684.930117,979.521063 C684.730117,979.721063 685.930117,985.221063 687.530117,991.721063 C689.130117,998.321063 690.730117,1006.82106 691.130117,1010.72106 L691.730117,1017.72106 L686.230117,1024.22106 C680.530117,1031.02106 664.530117,1053.82106 664.530117,1055.02106 C664.530117,1055.42106 666.430117,1057.32106 668.830117,1059.12106 L673.030117,1062.42106 L669.030117,1061.72106 C666.830117,1061.42106 663.930117,1060.82106 662.530117,1060.62106 C660.230117,1060.12106 660.330117,1060.32106 663.530117,1063.02106 C665.430117,1064.72106 666.830117,1066.32106 666.530117,1066.52106 C666.230117,1066.82106 659.330117,1065.32106 651.030117,1063.12106 C642.830117,1061.02106 635.930117,1059.52106 635.630117,1059.72106 C635.430117,1060.02106 635.930117,1060.82106 636.730117,1061.52106 C637.630117,1062.12106 641.530117,1065.22106 645.430117,1068.22106 C651.630117,1073.02106 654.230117,1076.22106 651.730117,1076.22106 C650.830117,1076.22106 638.030117,1070.82106 629.430117,1066.92106 C615.630117,1060.52106 607.730117,1059.02106 583.530117,1058.22106 C565.630117,1057.52106 558.430117,1056.82106 548.330117,1054.82106 C510.830117,1047.22106 465.330117,1022.62106 424.730117,988.021063 C419.630117,983.621063 415.030117,980.221063 414.530117,980.421063 C414.030117,980.621063 412.430117,982.421063 410.830117,984.421063 C394.730117,1005.52106 393.930117,1006.32106 383.330117,1011.22106 C375.130117,1015.02106 365.630117,1016.52106 357.130117,1015.32106 C347.430117,1013.92106 340.430117,1010.32106 332.930117,1002.82106 C326.830117,996.721063 325.530117,994.521063 314.530117,971.821063 C297.130117,936.221063 295.830117,931.521063 299.030117,915.421063 C302.430117,898.621063 310.130117,879.821063 319.630117,864.621063 C322.030117,860.921063 323.330117,857.821063 322.930117,856.821063 C322.530117,855.721063 322.830117,855.221063 323.930117,855.221063 C324.830117,855.221063 325.530117,854.821063 325.530117,854.321063 C325.530117,853.221063 339.730117,845.221063 342.830117,844.621063 C353.130117,842.521063 367.630117,841.221063 382.530117,841.321063 C401.730117,841.321063 413.530117,842.821063 419.030117,846.121063 C421.530117,847.521063 422.530117,847.821063 422.530117,846.821063 C422.530117,845.021063 419.730117,826.721063 418.030117,817.021063 C413.730117,793.321063 410.430117,772.621063 409.030117,760.421063 C408.230117,752.821063 407.030117,743.221063 406.430117,738.921063 C405.330117,731.421063 405.630117,728.821063 407.430117,730.821063 C407.930117,731.321063 409.730117,736.721063 411.530117,742.721063 C413.230117,748.821063 415.030117,754.121063 415.530117,754.621063 C416.430117,755.521063 416.730117,754.821063 419.630117,742.221063 C421.730117,733.121063 421.830117,731.421063 421.130117,702.721063 C419.930117,647.721063 417.330117,631.821063 405.630117,608.221063 C400.030117,596.821063 397.530117,593.821063 393.530117,593.821063 C390.730117,593.721063 389.730117,593.121063 388.030117,590.421063 C380.230117,577.721063 380.530117,577.921063 370.230117,572.921063 C360.930117,568.421063 326.630117,555.221063 311.030117,550.221063 C290.730117,543.621063 273.430117,530.521063 264.330117,514.921063 C262.130117,510.921063 260.030117,507.521063 259.830117,507.321063 C259.230117,506.521063 240.130117,525.721063 229.130117,538.221063 C185.330117,587.821063 153.530117,650.521063 140.130117,713.721063 C115.130117,832.421063 144.830117,953.421063 221.730117,1045.92106 C234.030117,1060.82106 261.830117,1088.32106 275.530117,1099.32106 C321.630117,1136.22106 372.430117,1161.52106 427.730117,1175.12106 C448.630117,1180.32106 463.930117,1182.72106 492.530117,1185.52106 C502.930117,1186.62106 544.830117,1186.02106 558.730117,1184.72106 Z" id="Shape"></path>
            </g>
        </g>
    </g>
</svg>